<?xml version="1.0" encoding="utf-8"?>
<!-- Generator: Adobe Illustrator 19.1.0, SVG Export Plug-In . SVG Version: 6.00 Build 0)  -->
<svg version="1.1" id="Слой_1" xmlns="http://www.w3.org/2000/svg" xmlns:xlink="http://www.w3.org/1999/xlink" x="0px" y="0px"
	 viewBox="0 0 100 100" style="enable-background:new 0 0 100 100;" xml:space="preserve">
<style type="text/css">
	.st0{fill:#0D0F0F;}
</style>
<g>
	<path class="st0" d="M13.3,0.7h72.8c6.9,0,12.6,5.1,12.6,12.6v72.8c0,7.5-5.7,12.6-12.6,12.6H13.3c-6.9,0-12.6-5.1-12.6-12.6V13.3
		C0.7,5.8,6.4,0.7,13.3,0.7L13.3,0.7z M72.1,11.6c-2.4,0-4.4,2-4.4,4.4v10.6c0,2.4,2,4.4,4.4,4.4h11.1c2.4,0,4.4-2,4.4-4.4V16
		c0-2.4-2-4.4-4.4-4.4H72.1L72.1,11.6z M87.6,42.1H79c0.8,2.7,1.3,5.5,1.3,8.4c0,16.3-13.6,29.5-30.5,29.5
		c-16.8,0-30.5-13.2-30.5-29.5c0-2.9,0.4-5.7,1.3-8.4h-9v41.4c0,2.1,1.8,3.9,3.9,3.9h68.2c2.1,0,3.9-1.8,3.9-3.9L87.6,42.1
		L87.6,42.1z M49.8,30.4c-10.9,0-19.7,8.5-19.7,19.1s8.8,19.1,19.7,19.1c10.9,0,19.7-8.5,19.7-19.1S60.7,30.4,49.8,30.4z"/>
</g>
</svg>
