<?xml version="1.0" encoding="utf-8"?>
<!-- Generator: Adobe Illustrator 19.1.0, SVG Export Plug-In . SVG Version: 6.00 Build 0)  -->
<svg version="1.1" id="Слой_1" xmlns="http://www.w3.org/2000/svg" xmlns:xlink="http://www.w3.org/1999/xlink" x="0px" y="0px"
	 viewBox="0 0 100 100" style="enable-background:new 0 0 100 100;" xml:space="preserve">
<style type="text/css">
	.st0{fill:#0D0F0F;}
</style>
<g>
	<g>
		<g>
			<path class="st0" d="M49.8,59.6c5.4,0,9.8-4.4,9.8-9.8c0-2.1-0.7-4.1-1.9-5.7c-1.8-2.5-4.7-4.1-8-4.1c-3.3,0-6.2,1.6-8,4.1
				c-1.2,1.6-1.9,3.6-1.9,5.7C40,55.2,44.4,59.6,49.8,59.6z"/>
			<polygon class="st0" points="71.2,37.8 71.2,29.6 71.2,28.4 70,28.4 61.8,28.4 61.8,37.9 			"/>
			<path class="st0" d="M49.8,0.8c-27,0-49,22-49,49c0,27,22,49,49,49c27,0,49-22,49-49C98.8,22.8,76.8,0.8,49.8,0.8z M77.7,44.1
				v22.8c0,5.9-4.8,10.8-10.8,10.8H32.7c-5.9,0-10.8-4.8-10.8-10.8V44.1V32.7C22,26.8,26.8,22,32.7,22h34.2
				c5.9,0,10.8,4.8,10.8,10.8V44.1z"/>
			<path class="st0" d="M65.1,49.8c0,8.4-6.8,15.2-15.2,15.2s-15.2-6.8-15.2-15.2c0-2,0.4-4,1.1-5.7h-8.3v22.8
				c0,2.9,2.4,5.3,5.3,5.3h34.2c2.9,0,5.3-2.4,5.3-5.3V44.1h-8.3C64.7,45.9,65.1,47.8,65.1,49.8z"/>
		</g>
	</g>
</g>
</svg>
