<?xml version="1.0" encoding="utf-8"?>
<!-- Generator: Adobe Illustrator 19.1.0, SVG Export Plug-In . SVG Version: 6.00 Build 0)  -->
<svg version="1.1" id="Слой_1" xmlns="http://www.w3.org/2000/svg" xmlns:xlink="http://www.w3.org/1999/xlink" x="0px" y="0px"
	 viewBox="0 0 100 100" style="enable-background:new 0 0 100 100;" xml:space="preserve">
<style type="text/css">
	.st0{fill:#0E0F10;}
	.st1{fill:#0E0F10;stroke:#FFFFFF;stroke-width:1.7748;stroke-linecap:round;stroke-linejoin:round;stroke-miterlimit:10;}
</style>
<g>
	<g>
		<path class="st0" d="M74,99H26C12.2,99,1,87.8,1,74V26C1,12.2,12.2,1,26,1h48c13.8,0,25,11.2,25,25v48C99,87.8,87.8,99,74,99z
			 M26,6.6C15.3,6.6,6.6,15.3,6.6,26v48c0,10.7,8.7,19.4,19.4,19.4h48c10.7,0,19.4-8.7,19.4-19.4V26c0-10.7-8.7-19.4-19.4-19.4
			L26,6.6L26,6.6z"/>
	</g>
	<g>
		<path class="st0" d="M96.2,37.8H61.7c-1.5,0-2.8-1.3-2.8-2.8s1.3-2.8,2.8-2.8h34.5c1.5,0,2.8,1.3,2.8,2.8
			C99,36.5,97.7,37.8,96.2,37.8z"/>
	</g>
	<g>
		<path class="st0" d="M37.6,37.8H3.8C2.3,37.8,1,36.5,1,35c0-1.5,1.3-2.8,2.8-2.8h33.8c1.5,0,2.8,1.3,2.8,2.8
			C40.4,36.5,39.1,37.8,37.6,37.8z"/>
	</g>
	<g>
		<path class="st0" d="M50,71.8C38,71.8,28.2,62,28.2,50S38,28.2,50,28.2c12,0,21.8,9.8,21.8,21.8C71.8,62,62,71.8,50,71.8z
			 M50,33.8c-9,0-16.2,7.3-16.2,16.2S41,66.2,50,66.2S66.2,59,66.2,50S59,33.8,50,33.8z"/>
	</g>
	<g>
		<path class="st0" d="M81.6,30.5H69c-1.5,0-2.8-1.3-2.8-2.8V15.1c0-1.5,1.3-2.8,2.8-2.8h12.6c1.5,0,2.8,1.3,2.8,2.8v12.6
			C84.4,29.3,83.2,30.5,81.6,30.5z M71.8,24.9h7v-7h-7V24.9z"/>
	</g>
	<g>
		<path class="st1" d="M61.7,35"/>
	</g>
</g>
</svg>
