<svg xmlns="http://www.w3.org/2000/svg" viewBox="0 0 100 100">
	<path d="M92.4,26.6C88,19.1,82.1,13.2,74.6,8.8C67.1,4.4,58.9,2.2,50,2.2c-8.9,0-17.1,2.2-24.6,6.6 C17.9,13.2,12,19.1,7.6,26.6C3.2,34.1,1,42.3,1,51.2C1,61.9,4.1,71.5,10.3,80c6.2,8.5,14.3,14.4,24.1,17.7c1.1,0.2,2,0.1,2.6-0.4 c0.6-0.5,0.8-1.1,0.8-1.9c0-0.1,0-1.3,0-3.4c0-2.2,0-4.1,0-5.7l-1.5,0.3c-0.9,0.2-2.1,0.2-3.5,0.2c-1.4,0-2.9-0.2-4.4-0.4 c-1.5-0.3-3-0.9-4.3-1.9c-1.3-1-2.3-2.3-2.8-3.9L20.6,79c-0.4-1-1.1-2.1-2-3.3c-0.9-1.2-1.8-2-2.8-2.4L15.4,73 c-0.3-0.2-0.6-0.5-0.8-0.8c-0.3-0.3-0.4-0.6-0.6-0.9c-0.1-0.3,0-0.5,0.3-0.7c0.3-0.2,1-0.3,1.9-0.3l1.3,0.2 c0.9,0.2,1.9,0.7,3.2,1.5c1.3,0.9,2.3,2,3.1,3.3c1,1.7,2.2,3.1,3.5,4c1.4,0.9,2.8,1.4,4.2,1.4s2.6-0.1,3.6-0.3c1-0.2,2-0.5,2.9-1 c0.4-2.9,1.4-5,3.1-6.6c-2.4-0.3-4.6-0.6-6.5-1.1c-1.9-0.5-3.9-1.3-6-2.5c-2.1-1.1-3.8-2.6-5.1-4.3C22,63.2,20.9,61,20,58.2 c-0.9-2.8-1.3-6-1.3-9.6c0-5.1,1.7-9.5,5-13.1c-1.6-3.9-1.4-8.2,0.4-13c1.2-0.4,3.1-0.1,5.5,0.9c2.4,1,4.2,1.8,5.3,2.5 c1.1,0.7,2,1.3,2.7,1.7c4-1.1,8-1.7,12.2-1.7s8.3,0.6,12.3,1.7l2.4-1.5c1.7-1,3.6-2,5.9-2.8c2.3-0.9,4-1.1,5.2-0.7 c1.9,4.8,2.1,9.1,0.5,13c3.4,3.6,5,8,5,13.1c0,3.6-0.4,6.8-1.3,9.6c-0.9,2.8-2,5-3.4,6.7c-1.4,1.7-3.1,3.1-5.2,4.2 c-2.1,1.1-4.1,2-6,2.5c-1.9,0.5-4.1,0.9-6.5,1.1c2.2,1.9,3.3,4.9,3.3,9.1v13.5c0,0.8,0.3,1.4,0.8,1.9c0.5,0.5,1.4,0.7,2.5,0.4 c9.9-3.3,17.9-9.2,24.1-17.7c6.2-8.5,9.3-18.1,9.3-28.8C99,42.3,96.8,34.1,92.4,26.6z"/>
</svg>
