<svg xmlns="http://www.w3.org/2000/svg" viewBox="0 11.6 100 76.6">
	<path d="M72.5,12.4c1.3,2.9,2.1,7.7,0.9,11.2c5,4.3,6.8,14.8,4.3,23.3 c7.2,0.5,15.7-0.3,21.2,1.9c-5.2-0.7-12.2-2-18.9-1.5c-1.3,0.1-3.1,0-3,1.7c7.7,0.6,15.4,1.3,21.7,3.2c-6.3-1-13.9-2.6-21.7-2.8 c-3.2,6.4-9.7,9.5-18.6,10.1c1,2.1,2.8,2.9,3.3,6.3c0.7,5-1,12.4,0.6,15.7c0.8,1.6,2.1,1.6,3,3c-2.2,2.6-7.6-0.3-8.2-3 c-1.1-4.7,1.6-11.9-1.3-15.1c0.2,5.1-1.2,12.3,0.2,16.8c0.6,1.8,2.2,2.5,1.7,4.1c-10.2,1-5.9-13.2-7.6-21.6 c-1.5,0.1-0.9,2.3-0.9,3.2c0,8.2,1.7,19.4-7.2,18.3c-0.3-1.7,1.2-2.3,1.7-3.9c1.6-4.6-0.3-11.5,0.4-17c-3.4,2.5,0.4,11.4-1.7,16 c-1.2,2.6-5.1,3.8-8,2.6c0.4-1.9,2.4-1.6,3.2-3.5c1.2-2.5,0-6.2,0.4-9.9c-6.2,1.2-11.1-0.2-13.4-4.1c-1.1-1.8-1.3-3.8-2.6-5.4 c-1.3-1.6-3.3-1.8-3.9-3.9c7.7-1.9,8,8,15,8.2c2.1,0.1,3.2-0.6,5.2-1.1c0.6-2.5,1.7-4.3,3.5-5.6c-8.6-1.2-15.8-3.9-19.1-10.3 c-7.8,0.4-15,1.4-21.7,3c6-2.2,13.5-3,21.5-3.2c-0.5-2.8-4.6-2-7.2-1.9c-4.5,0.4-10.5,1-14.3,1.7c5.5-2,13.2-1.7,20.6-1.7 c-2.3-7.1-1.5-18.4,3.5-22.6c-1.4-3.5-1-9.3,0.9-12.1c5.5,0.2,8.9,2.7,12.4,5c4.3-1.2,8.8-1.8,14.7-1.5c2.5,0.1,5.1,1.3,6.9,1.1 c1.8-0.2,3.9-2.2,5.6-3C67.9,12.9,69.9,12.5,72.5,12.4z"/>
</svg>
