<svg xmlns="http://www.w3.org/2000/svg" viewBox="0 0 100 84.6">
	<path d="M91,23.6c1.1-3.2,1.6-6.5,1.6-9.9c0-4.6-1-8.8-3-12.8c-4.2,0-7.9,0.8-11.1,2.3c-3.2,1.5-6.9,3.9-11,7.1 C62.3,9,56.8,8.4,50.9,8.4c-6.4,0-12.4,0.7-18.2,2.1c-4.2-3.3-7.9-5.7-11.1-7.3s-6.9-2.3-11.2-2.3c-2,4-3,8.3-3,12.8 c0,3.5,0.5,6.8,1.6,10c-5.3,6.2-8,14-8,23.3c0,8.2,1.2,14.7,3.7,19.5c1.3,2.6,3,4.8,5.1,6.8c2.1,2,4.5,3.6,7.1,4.8 c2.7,1.2,5.4,2.2,8.1,3c2.7,0.8,5.7,1.4,9,1.8c3.3,0.4,6.2,0.6,8.7,0.7c2.5,0.1,5.3,0.2,8.4,0.2c3.6,0,6.9-0.1,9.8-0.3 c2.9-0.2,6.3-0.6,10.1-1.3c3.8-0.7,7.1-1.6,10-2.8c2.9-1.2,5.7-2.9,8.3-5.1c2.7-2.2,4.7-4.8,6.2-7.8C97.8,61.6,99,55.1,99,47 C99,37.7,96.3,29.9,91,23.6z M83.9,66.4c-1.3,2.6-2.8,4.6-4.8,6.1C77.2,74,74.8,75.1,72,76c-2.9,0.9-5.6,1.5-8.2,1.7 c-2.6,0.3-5.6,0.4-8.8,0.4h-9.9c-3.2,0-6.1-0.1-8.8-0.4c-2.6-0.3-5.4-0.9-8.2-1.7c-2.9-0.9-5.3-2.1-7.2-3.5 c-1.9-1.5-3.5-3.5-4.8-6.1c-1.3-2.6-1.9-5.6-1.9-9c0-4.7,1.4-8.7,4.1-12c2.7-3.3,6.4-4.9,11-4.9c1.7,0,5.5,0.4,11.5,1.2 c2.8,0.4,5.9,0.6,9.2,0.6c3.4,0,6.5-0.2,9.2-0.6c6-0.8,9.9-1.2,11.5-1.2c4.6,0,8.3,1.6,11,4.9c2.7,3.3,4.1,7.3,4.1,12 C85.8,60.8,85.2,63.9,83.9,66.4z M35.4 48.1c-1.2-1.3-2.6-2-4.3-2-1.6 0-3.1.7-4.3 2-1.2 1.3-2 2.8-2.5 4.5-.5 1.7-.7 3.3-.7 4.8 0 1.6.2 3.2.7 4.8.5 1.6 1.3 3.1 2.5 4.5 1.2 1.3 2.6 2 4.3 2 1.6 0 3.1-.7 4.3-2 1.2-1.3 2-2.8 2.5-4.5.5-1.7.7-3.3.7-4.8 0-1.6-.2-3.2-.7-4.8C37.5 50.9 36.6 49.4 35.4 48.1zM73.1 48.1c-1.2-1.3-2.6-2-4.3-2-1.6 0-3.1.7-4.3 2-1.2 1.3-2 2.8-2.5 4.5-.5 1.7-.7 3.3-.7 4.8 0 1.6.2 3.2.7 4.8.5 1.6 1.3 3.1 2.5 4.5 1.2 1.3 2.6 2 4.3 2 1.6 0 3.1-.7 4.3-2 1.2-1.3 2-2.8 2.5-4.5.5-1.7.7-3.3.7-4.8 0-1.6-.2-3.2-.7-4.8C75.2 50.9 74.3 49.4 73.1 48.1z"/>
</svg>
