<svg xmlns="http://www.w3.org/2000/svg" viewBox="0 0 100 100">
	<path d="M50,1C22.9,1,1,22.9,1,50s21.9,49,49,49s49-21.9,49-49S77.1,1,50,1z M74.3,42.1c0,0.5,0,1,0,1.5 c0,15.5-11.8,33.3-33.3,33.3c-6.7,0-12.8-2-18-5.3c0.9,0.1,1.9,0.2,2.8,0.2c5.4,0,10.5-1.9,14.5-5c-5.1-0.1-9.4-3.4-10.9-8.1 c0.7,0.1,1.4,0.2,2.2,0.2c1.1,0,2.1-0.1,3.1-0.4c-5.4-1.1-9.4-5.8-9.4-11.5v-0.1c1.6,0.9,3.4,1.4,5.3,1.5c-3.1-2.1-5.2-5.6-5.2-9.7 c0-2.2,0.6-4.2,1.6-5.9c5.7,7,14.4,11.7,24.1,12.2c-0.2-0.9-0.3-1.8-0.3-2.7c0-6.5,5.2-11.7,11.7-11.7c3.4,0,6.5,1.4,8.6,3.7 c2.6-0.5,5.1-1.5,7.4-2.8c-0.9,2.8-2.8,5.1-5.2,6.5c2.3-0.2,4.6-0.9,6.7-1.8C78.4,38.6,76.5,40.6,74.3,42.1z"/>
</svg>
