<?xml version="1.0" encoding="utf-8"?>
<!-- Generator: Adobe Illustrator 19.1.0, SVG Export Plug-In . SVG Version: 6.00 Build 0)  -->
<svg version="1.1" id="Слой_1" xmlns="http://www.w3.org/2000/svg" xmlns:xlink="http://www.w3.org/1999/xlink" x="0px" y="0px"
	 viewBox="0 0 100 58.6" style="enable-background:new 0 0 100 58.6;" xml:space="preserve">
<style type="text/css">
	.st0{fill:#1B1C1A;}
</style>
<g>
	<path class="st0" d="M95.1,45.8c-1.8-2-3.5-4-5.3-6c-2.2-2.4-5.2-5-6.4-8.1c4.2-4.9,7.9-10.4,11.3-15.9c1.9-3.2,5.1-7,3.8-10.7
		c0.1-0.3,0.1-0.7-0.3-0.9c0,0-0.1,0-0.1,0C98.1,4.1,97.9,4,97.7,4c-4.3-1.5-9.3-1.3-13.8-1.2c-2.9,0.1-5.7,0-8,1.6
		c-0.2,0-0.4,0.1-0.6,0.3c-0.1,0.1-0.1,0.2-0.2,0.2c0,0-0.1,0-0.1,0.1c-0.1,0.1-0.2,0.3-0.2,0.4c-2.2,3.3-4,7-6.1,10.3
		c-1.1,1.8-2.3,3.6-3.5,5.4c-0.6,0.9-1.2,1.8-1.8,2.7c-0.9,1.9-2.4,2.3-4.6,1c0-0.1-0.1-0.1-0.1-0.2c-0.1-2.5-0.4-4.9-0.3-7.4
		c0.1-3.2,0.8-6.3,1-9.5c0.2-3.2-0.7-6.1-4-7.1c-0.4-0.1-0.7,0.2-0.9,0.5c-3.8,0.3-7,0.4-10.9-0.3c-2.9-0.6-5.3-0.6-8,0.3
		c-0.4-0.2-0.9,0-0.9,0.4c-0.5,3.3,1.7,4.5,3.3,7.2c1.7,2.8,1.7,6.1,1.5,9.3c-0.1,1.6-0.2,7.4-2.3,8c-0.1,0-0.2,0.1-0.2,0.1
		c-3.5-0.5-8.5-10.9-9.6-12.7c-1.9-3.1-3.7-6.2-5.8-9.1c0.1-0.4,0.1-0.8-0.4-1c-0.1,0-0.2-0.1-0.3-0.1c0,0,0,0,0-0.1
		c-0.2-0.3-0.5-0.3-0.7-0.1C15.2,2,9.2,1.9,4.3,2.7c-2.7,0.4-3,1.3-3,3C1.1,5.7,0.9,5.9,1,6.2C5.1,21,14,34.6,24.9,45.4
		c8.3,8.2,19.3,16.2,31.2,10.8c0.3-0.1,0.3-0.4,0.1-0.6c0.9-0.7,1.6-1.3,2.2-2.3c0.4-0.6,0.7-1.3,1-2c1.3-2.7,0.6-3.3,4.1-3.6
		c3-0.2,2.7-0.2,4.5,1.4c1,0.9,2.1,1.8,3.1,2.6c1.6,1.2,3.2,2.4,4.8,3.5c2.8,3.4,9.5,2.1,13.4,2.2c3.1,0,7.8,0.4,9-2.9
		c0.3-0.1,0.5-0.3,0.6-0.8C99.2,50.5,97.2,48.2,95.1,45.8z M87.2,55.3c-2.3-0.1-6.7,0.5-9.3-0.7c-0.1-0.1-0.1-0.3-0.3-0.4
		c-3.4-2.6-6.5-5.5-9.8-8.2c-1.4-1.2-2.8-2.5-4.7-2.4c-4.7,0.2-5.7,8.3-8,11.2C55,55.1,55,55.3,55,55.5c-25.7,5.7-43.5-28.1-52.4-48
		c0.2-1.4-0.3-2.1,1.8-2.9c1.4-0.5,3.8,0,5.3,0c3.5,0.1,7,0.4,10.5,0.3c1.7,3.6,3.9,7,5.9,10.4c2,3.4,4,7.4,6.6,10.4
		c1.6,1.8,4.6,3.8,6.2,0.8c0,0,0,0,0-0.1c2.2-1.8,2.2-6,2.4-8.5c0.2-2.6-0.1-4.9-1.1-7.3c-1.2-2.8-3.8-5-4.1-8.1
		c3.7-0.2,7.1,0.9,10.7,1.3c3,0.3,6-0.1,9-0.9c0.9,1.2,1.2,2.7,1.3,4.2c-3.2-0.6-6.6-0.8-9.9-0.7c-0.1,0-0.1,0.2,0,0.2
		c3.3,0,6.6,0.4,9.9,0.9c0,1,0,1.9-0.1,2.9c-4.6-0.6-9.3-0.8-14-1.1c-0.2,0-0.2,0.2,0,0.2c4.6,0.4,9.3,1,13.9,1.2
		c-0.1,1.4-0.3,2.9-0.4,4.1c0,0,0,0,0,0c-3.8-0.1-7.6-0.3-11.4-0.9c-0.2,0-0.2,0.2-0.1,0.2c3.8,0.7,7.6,1.1,11.4,0.9c0,0,0,0,0,0
		c0,0.1,0,0.2,0,0.3c0,1.5,0,3,0.1,4.4c-2-0.1-4-0.2-6-0.3c-0.2,0-0.2,0.2,0,0.2c2,0.1,4,0.3,6.1,0.4c0.1,1.5,0.3,3.1,0.7,4.6
		c-2.2-0.7-4.5-0.7-6.8-0.1c-0.1,0-0.1,0.2,0.1,0.2c2.3-0.5,4.5-0.4,6.7,0.2c0.1,0,0.1,0,0.1-0.1c0.1,0.4,0.2,0.7,0.3,1.1
		c0,0.1,0.1,0.2,0.2,0.3c0.8,2.9,4.9,1.6,6.7-0.4c4.7-5.4,9.4-13.1,11.8-19.9c3.2-1.5,7.4-1.2,10.8-1.2c3.3-0.1,6.6,0.3,9.8,0.4
		c0.1,0.7-0.1,1.5-0.3,2.3C94.4,7.8,92,8,89.6,7.9c-0.1,0-0.1,0.1,0,0.1c2.3,0.3,4.8,0.4,7.2-0.1c-0.9,2.8-3.1,5.9-4.9,8.3
		c-2.4-0.1-4.9,0-7.3,0c-0.2,0-0.2,0.4,0,0.4c2.3,0,4.7,0.1,7.1,0c-0.5,0.7-0.9,1.3-1.3,1.8c-0.5,0.8-1.1,1.6-1.7,2.4
		c-3.1,0.1-6.1,0.1-9.2-0.3c-0.2,0-0.2,0.3,0,0.4c2.9,0.3,5.9,0.5,8.9,0.3c-1.2,1.7-2.4,3.4-3.7,5.1c-3.6,0-7.1,0-10.7,0
		c-0.2,0-0.2,0.3,0,0.3c3.5,0,6.9,0.1,10.4,0c-0.9,1.2-1.8,2.4-2.7,3.6c-0.2,0.2-0.2,0.5-0.2,0.7c-3.7-0.2-7.3-0.3-11-0.4
		c-0.2,0-0.2,0.3,0,0.3c3.6,0.1,7.3,0.3,10.9,0.4c0,0,0,0,0,0c0.2,1.8,1,3.2,2.1,4.6c-4.4,0.1-8.7,0.3-13,0.1c-0.2,0-0.2,0.3,0,0.3
		c4.4,0.2,8.9,0.3,13.3-0.1c1,1.3,2.2,2.4,3.3,3.6c0.4,0.5,0.8,0.9,1.3,1.4c-7.5-0.6-15-1-22.5-1.3c-0.1,0-0.1,0.2,0,0.2
		c7.6,0.6,15.2,1.1,22.8,1.4c1.3,1.3,2.7,2.8,4.1,4.3c-4.7-0.4-9.5-0.6-14.2-0.8c-0.1,0-0.1,0.2,0,0.2c4.8,0.3,9.6,0.7,14.4,0.9
		c0.9,1,1.8,2.1,2.5,3.2c-3.3-0.1-6.5-0.2-9.8-0.3c-1.5,0-4.9-0.9-6.1,0.2c0,0,0,0.1,0,0.1c0.1,0.1,0.1,0.2,0.2,0.2c0,0,0.1,0,0.1,0
		l0.2-0.2c0.1-0.1,0-0.1-0.1-0.1c1.2-1,6.6,0,8.3,0.1c2.5,0.1,4.9,0.2,7.4,0.3c0.7,1.2,1.2,2.4,1.5,3.6
		C95.1,56.4,90.4,55.4,87.2,55.3z"/>
	<path class="st0" d="M96.3,53.2c-5.6-0.7-11.4-1.4-17-1.8c0.2,0,0.2-0.2,0-0.3c-0.1,0-0.2,0-0.3,0c-0.1,0-0.1,0-0.1,0.1
		c0,0.1-0.1,0.2-0.1,0.3c0,0,0,0.1,0,0.1c1.2,1.1,4.4,0.7,5.9,0.8c3.9,0.4,7.7,0.8,11.6,1C96.5,53.6,96.5,53.3,96.3,53.2z"/>
	<path class="st0" d="M94.2,11.5c-2.3,0.1-4.5,0.3-6.8,0.2c-0.2,0-0.2,0.3,0,0.3c2.2,0.2,4.6,0.3,6.8-0.2
		C94.5,11.7,94.4,11.5,94.2,11.5z"/>
</g>
</svg>
