<?xml version="1.0" encoding="utf-8"?>
<!-- Generator: Adobe Illustrator 19.1.0, SVG Export Plug-In . SVG Version: 6.00 Build 0)  -->
<svg version="1.1" id="Слой_1" xmlns="http://www.w3.org/2000/svg" xmlns:xlink="http://www.w3.org/1999/xlink" x="0px" y="0px"
	 viewBox="0 0 100 100" style="enable-background:new 0 0 100 100;" xml:space="preserve">
<style type="text/css">
	.st0{fill:#0F1011;}
</style>
<g>
	<path class="st0" d="M55.3,55c-1.6-0.9-3.8-0.9-5.5-0.9h-5.8v12h5.3c2,0,4.5,0.1,6.2-1.1c1.6-1.1,2.5-3.1,2.5-5.1
		C57.9,58.1,56.8,55.9,55.3,55z M53.1,44.8c1.3-1,2-2.7,2-4.4c0-1.8-0.8-3.5-2.3-4.4c-1.6-0.9-4.4-0.7-6.3-0.7h-2.5v10.6h3.4
		C49.2,45.9,51.4,46,53.1,44.8z M81.8,1H18.2C8.7,1,1,8.7,1,18.2v63.5C1,91.3,8.7,99,18.2,99h63.5C91.3,99,99,91.3,99,81.8V18.2
		C99,8.7,91.3,1,81.8,1z M52.7,75h-20V26.7h21.9c6.3,0,12.2,4,12.2,11.1c0,5.5-3.1,9.3-7,10.4v0.1c5.8,1.2,9.9,4.3,9.9,11.9
		C69.7,67.4,64.9,75,52.7,75z"/>
</g>
</svg>
