<?xml version="1.0" encoding="utf-8"?>
<!-- Generator: Adobe Illustrator 19.1.0, SVG Export Plug-In . SVG Version: 6.00 Build 0)  -->
<svg version="1.1" id="Слой_1" xmlns="http://www.w3.org/2000/svg" xmlns:xlink="http://www.w3.org/1999/xlink" x="0px" y="0px"
	 viewBox="0 0 100 100" style="enable-background:new 0 0 100 100;" xml:space="preserve">
<style type="text/css">
	.st0{fill:#4E739B;}
</style>
<path class="st0" d="M50,1C22.9,1,1,22.9,1,50s21.9,49,49,49s49-21.9,49-49S77.1,1,50,1z M78.1,71.5l-8.6,0.1c0,0-1.9,0.4-4.3-1.3
	c-3.2-2.2-6.2-7.9-8.6-7.2c-2.4,0.7-2.3,5.9-2.3,5.9s0,1.1-0.5,1.7c-0.6,0.7-1.8,0.8-1.8,0.8h-3.9c0,0-8.4,0.5-15.9-7.3
	C24,55.7,17,38.7,17,38.7s-0.5-1.1,0-1.6c0.5-0.6,1.9-0.6,1.9-0.6l9.2-0.1c0,0,0.9,0.1,1.5,0.6c0.5,0.4,0.8,1.1,0.8,1.1
	s1.5,3.8,3.5,7.2c3.8,6.7,5.6,8.1,6.9,7.4c1.9-1.1,1.3-9.4,1.3-9.4s0-3.1-1-4.4c-0.8-1-2.3-1.3-2.9-1.4c-0.5-0.1,0.3-1.3,1.4-1.8
	c1.6-0.8,4.5-0.8,8-0.8c2.7,0,3.4,0.1,4.5,0.4c3.2,0.8,2.1,3.7,2.1,10.8c0,2.2-0.4,5.4,1.2,6.5c0.7,0.5,2.4,0.1,6.7-7.2
	c2.1-3.4,3.6-7.5,3.6-7.5s0.4-0.7,0.9-1c0.5-0.3,1.2-0.2,1.2-0.2l9.7-0.1c0,0,2.9-0.3,3.4,1c0.5,1.4-1,4.6-5,9.9
	c-6.5,8.6-7.2,7.8-1.8,12.8c5.2,4.8,6.2,7.1,6.4,7.4C82.6,71.2,78.1,71.5,78.1,71.5z"/>
</svg>
