<?xml version="1.0" encoding="utf-8"?>
<!-- Generator: Adobe Illustrator 19.1.0, SVG Export Plug-In . SVG Version: 6.00 Build 0)  -->
<svg version="1.1" id="Слой_1" xmlns="http://www.w3.org/2000/svg" xmlns:xlink="http://www.w3.org/1999/xlink" x="0px" y="0px"
	 viewBox="0 0 100 100" style="enable-background:new 0 0 100 100;" xml:space="preserve">
<style type="text/css">
	.st0{fill:#0D0F0F;}
</style>
<path id="github" class="st0" d="M98.4,41.4c-1-6.9-4-12.4-7.8-19.3c-3.8-6.9-10.7-11.7-15.5-15.1c-4.8-3.4-11.5-5-18-5.7
	S42.6,0.8,37.2,2.2c-7.5,1.9-12.4,4-17.4,8.6S11,20.1,7.6,25.3C4.5,30.5,2,38.5,1.5,42.5s0,9.2,1.3,15.3c1.5,6.1,4.4,11.7,9,18.7
	c4.4,6.9,10.7,11.1,17.8,15.5c7.1,4.4,22.4,7.8,28.1,6.9s13.6-2.7,21.8-9.2c8.2-6.5,12.6-17,15.1-23.7
	C97.6,59.3,99.2,48.4,98.4,41.4z M86.9,71.4c-0.2,0-3.4-5.7-3.6-6.1c-0.2-0.4,1.3-2.9,1.5-2.9s3.4,5.9,3.4,6.1
	C88.1,68.7,87.1,71.4,86.9,71.4z M74.9,33.9c-0.2-0.4-0.2-0.8-0.2-0.8c0-0.2,1-2.5,0.6-4.6c-0.2-2.1-1.3-5.5-1-5.5
	c0.2,0,3.8,2.9,5.9,7.5c2.1,4.8,4,8.4,4.6,14.9c0.6,6.5,0.4,11.1-1.9,15.5c-2.3,4.4-4,6.7-5.2,8.2c-1.3,1.3-4,2.5-4.2,2.5
	c-0.2,0-1.5-5.7-2.3-7.5c-0.8-1.9-2.5-4.2-2.5-4.6c0,0,2.7-2.3,3.6-3.8c0.8-1.5,4-6.3,3.8-11.9C76,38.3,75.1,34.3,74.9,33.9z
	 M89.4,66.6c-0.2,0.2-4-6.3-3.8-6.5c0.4-0.4,1.5-3.8,1.7-3.8c0.2,0,3.8,6.3,3.8,6.7C91.1,63.4,89.8,66.4,89.4,66.6z M94.2,49.2
	c-0.4-0.4-3.4-6.9-3.8-7.1s-1.3,1.5-1,1.9c0.2,0.4,4.2,6.9,4.2,7.5c0.2,0.6-0.2,3.6-0.4,3.1c-0.2-0.4-2.9-6.1-3.4-6.1
	c-0.4,0-1.3,1.3-1.3,1.5s3.8,7.3,3.8,7.8s-0.6,3.4-0.8,2.7c-0.2-0.6-4-6.7-4.2-6.9c0-0.2,0-8.6-0.4-12.4S85,29.9,79.7,23.8
	S68.8,13.6,60.9,11.7s-13-1.9-18.9-1.5c-6.1,0.2-14.7,3.8-20.8,12.4c-5.9,8.6-6.9,10.9-8.2,17.2s0.2,15.3,1.3,19.3s4,9.9,7.1,12.8
	c3.1,2.9,7.3,4.8,10.5,6.1c3.1,1.3,8,1.9,8.4,1.7c0.4-0.2,0.2-5,0-5.7c-0.2-0.6-0.4-0.8-1.7-0.8s-3.6,0-5.2-0.6
	c-1.5-0.6-2.7-2.1-3.8-3.8s-2.1-3.6-2.7-4.2c-0.6-0.8-2.1-2.1-1.9-2.3c0.2-0.2,2.7-0.4,4.6,0c1.9,0.6,5,2.7,6.3,3.6
	c1.3,0.8,3.1,2.1,3.6,2.1c0.6,0,1.9-2.7,2.3-3.6c0.6-0.6,1.7-2.9,1.3-3.4c-0.6-0.4-3.8-0.6-5.5-1c-1.7-0.4-4.6-2.1-6.7-4.8
	c-2.1-2.7-2.9-6.7-2.9-9.6s2.7-8.4,3.4-9.4c0.6-1,1.3-2.1,1-2.5c-0.4-0.4-1.9-2.5-2.3-4c-0.4-1.5,0.8-5,1.3-5.2
	c0.2-0.2,1.9,0.4,3.1,0.4c1.3,0.2,4.2,1,5.2,1.7s1.5,1,2.1,1s5.2-1,6.9-1.5c1.7-0.4,6.3-0.8,8-0.6c1.7,0.4,4.4,1.9,4.8,1.7
	c0.4-0.2,1.5-2.3,3.8-2.9c2.3-0.6,6.1-0.8,6.5-0.4c0.4,0.4,1,4.4,0.8,6.5c-0.4,2.1-1,3.4-0.6,3.8c0.4,0.6,2.1,4.4,1.3,7.8
	s-2.1,8.2-6.3,11.3s-5.7,3.8-6.1,4c-0.4,0.4,0,1.3,0.4,1.7c0.4,0.4,3.6,2.5,5,7.1s1.7,7.3,1.7,8.4c0,1,1,1.3,1.9,1.3
	c0.8-0.2,1.9-0.8,3.1-1.9c1.3-1,5.2-3.8,5.7-3.8c0.2,0.2,2.7,5.2,3.4,5.5c0.6,0.2,1-0.2,1-0.6s-1.9-4.2-2.5-5.2
	c-0.6-1-0.8-1.7-0.8-1.9c0.2-0.4,1.3-1.7,1.7-1.5c0.2,0.2,2.9,4.4,3.4,5c0.4,0.6,0.8,0.8,0.4,1.7c-0.4,0.8-2.3,3.1-3.1,3.8
	c-0.8,0.8-1.3,1.7-1.7,1.3s-2.9-4.8-3.4-4.8c-0.4,0-1.5,0.8-1.3,1.3c0.2,0.4,3.4,5,3.4,5.2c0,0.2-1.7,2.3-3.4,3.6
	c-1.7,1.3-2.7,2.1-3.1,1.7s-3.6-8.2-4.2-8.2c-0.6,0-1.7,0.2-1.5,0.8c0.2,0.6,4.2,7.8,4.2,8.2c0,0.4-1.3,1.3-1.7,0.8
	c-0.4-0.4-4.6-9.2-5.2-9.2c-0.6,0-1.5,0.2-1.5,1s5.5,8.6,5.2,9c-0.2,0.4-1.3,1.5-1.7,1c-0.4-0.4-5.5-10.5-5.9-10.5s-1.7,0.2-1.7,0.6
	c0,0.2,5.7,10.9,5.7,11.1c0,0.2-2.3,1.3-2.7,1c-0.4-0.2-5.5-11.3-5.9-11.7c-0.4-0.2-1.9,0.8-1.9,1c0.2,0.2,6.1,10.7,5.9,11.1
	s-1.7,0.6-1.9,0.4c-0.2-0.2-5.9-11.1-6.3-11.1c-0.4-0.2-1.7,0.4-1.5,1c0.2,0.6,6.1,10.3,5.9,10.5c-0.2,0-1.7,0.2-1.9,0
	c-0.2-0.2-5.5-8.2-6.1-8.4c-0.6-0.2-1.5,0.8-1.5,1c0,0.2,4.8,7.3,4.6,7.3s-1.9,0-2.3-0.2c-0.4-0.2-3.8-6.3-4.2-6.3
	c-0.4-0.2-1.5,0.6-1.5,1c0.2,0.4,3.4,4.8,2.9,4.8s-1.5,0-2.1-0.2c-0.4-0.2-2.7-5-3.1-5.2c-0.4-0.2-1.3,0.4-1.3,0.6
	c0,0.2,1.9,3.6,1.5,3.6c-0.4,0-1.7,0-1.9-0.2c-0.4-0.2-2.5-3.8-2.7-4c-0.2-0.2-1.3,0.4-1.3,0.8c0.2,0.4,1,1.9,0.8,1.9
	c-0.4,0-7.5-1.9-11.5-4.6S13.5,72.9,11.2,70.4c-2.3-2.5-5.5-10.1-6.5-14S3.2,46.3,3.4,43.1c0-3.1,2.5-11.5,4-14.5S14.3,18,17.9,14.4
	s9.6-8.2,15.9-9.9c6.3-1.9,11.5-2.3,14.5-2.3c6.9,0,14.7,1,19.5,2.7s13.8,8.6,15.9,11.1s4.8,7.1,6.5,10.5c1.7,3.4,2.7,6.1,2.5,5.9
	c-0.2-0.2-2.3-3.8-2.7-3.6c-0.4,0-1.3,0.6-1,1c0.2,0.4,3.8,6.1,4.2,6.7c0.4,0.6,0.6,1.5,0.8,1.7c0,0.2,0.4,5,0.4,4.8
	c-0.2-0.2-3.6-6.5-4-6.7S89.6,37,89.8,37c0.2,0.2,4.8,8.2,4.8,8.6S94.8,49.6,94.2,49.2z M30.3,34.1c0.8,0.6-1,1.9-2.1,4.4
	c-1.3,2.7-2.3,7.8-1.7,10.9c0.6,3.1,2.1,6.9,5.5,9.9c3.4,2.9,8,3.1,8.4,3.4c0.4,0.2-0.8,2.1-1,2.3c-0.2,0.4-0.2,0.2-0.8,0
	s-4.6-3.6-8.6-4.4s-6.5,0.4-7.3,1c-0.8,0.8,0.2,2.1,1.3,2.9c1,0.8,2.5,2.5,4.2,5.5s2.7,3.8,5.5,4.6c2.7,0.8,4.8,1,5.2,1
	s0.4,1.3,0,1.7c-0.2,0.4-1.5-0.6-2.9-1.3c-1.7-0.4-4.6-0.8-6.3-1.9c-1.7-1-7.1-7.3-8.2-10.3c-1-2.7-3.1-9-3.1-12.2
	c0-3.1-0.2-8.6,1-12.6c1.3-4,4-10.7,8.2-15.3s10.1-8.2,18.9-9c8.8-1,16.6,1.7,21.4,3.4c4.8,1.7,5.9,2.7,5.9,2.9c0,0-1.5,0.2-5.2,0.6
	c-3.8,0.2-6.3,2.3-6.5,2.5c-0.2,0.2-4-0.6-8.2-1c-4-0.4-9.6,1.5-9.9,1.5s-0.8,0-2.3-0.6c-1.5-0.6-8.8-2.1-9.6-2.1s-2.7,2.3-3.1,5.9
	C28,31.6,29.6,33.5,30.3,34.1z M59,4.3c-6.3-0.8-10.3-0.4-10.7-0.2c-0.6,0.6-0.4,1.7,0.4,1.9c0.8,0.2,4.6-0.4,9.4,0
	c5,0.4,8.6,2.3,9.4,2.3c0.8,0,1.3-1.3,0.8-1.7C68,6.2,65.3,5.2,59,4.3z M12.2,27.8c-5,5.2-5.9,11.9-6.3,14.3s1,3.4,1.9,2.9
	s0-2.3,1.7-7.5s3.8-7.1,4.4-8.4C14.3,28,12.7,27.4,12.2,27.8z M35.3,47.9c-0.6-1.5-0.2-3.4,0.2-5c0.4-1.7-1.3-1.7-1.7-1.3
	c-1,1-1.5,4.2-1,6.3c0.4,2.1,2.1,5,3.1,5.5c1,0.4,1.9-0.2,1.7-1C37.4,51.3,35.9,49.4,35.3,47.9z M29.6,64.1c-1.5,1,0,2.1,0.6,2.1
	c0.6,0,1.3-0.2,1-1.3C30.9,64.1,30.1,63.9,29.6,64.1z M32.8,67c-1,0.6-0.2,2.1,0.6,2.1s1.3-0.6,1.5-1.3C35.1,67.2,33.2,66.6,32.8,67
	z M37.2,68.9c-1.7,0.4-1,1.9-0.2,2.1c0.8,0.2,1.5-0.2,1.7-1C38.9,69.1,38.2,68.7,37.2,68.9z M65.5,28.4c0.4,0,1.5,0.2,1.9,0.2
	s0.4,2.9,0.6,3.8c0.2,0.8,1.5,0.8,2.1,0.4c0.4-0.4-0.2-5.2-0.6-5.7c-0.4-0.4-3.8,0.2-4.2,0.2C65.1,27.4,65.1,28.2,65.5,28.4z
	 M74.9,84.2c0.4,0,1.3-0.4,1.3-0.8c0-0.6-2.7-6.9-2.9-7.1c-0.2-0.2-1.9,0.4-1.9,0.6C71.6,77.5,74.5,84.2,74.9,84.2z"/>
</svg>
