<?xml version="1.0" encoding="utf-8"?>
<!-- Generator: Adobe Illustrator 19.1.0, SVG Export Plug-In . SVG Version: 6.00 Build 0)  -->
<svg version="1.1" id="Слой_1" xmlns="http://www.w3.org/2000/svg" xmlns:xlink="http://www.w3.org/1999/xlink" x="0px" y="0px"
	 viewBox="0 0 100 100" style="enable-background:new 0 0 100 100;" xml:space="preserve">
<style type="text/css">
	.st0{fill:#4C76B1;}
	.st1{fill:#43567B;}
	.st2{fill:#70A4DB;}
	.st3{fill:#364762;}
</style>
<g>
	<path id="SVGCleanerId_0" class="st0" d="M50,2C22.9,2,1,24,1,51.2C1,73,15,91.4,34.5,97.9c2.4,0.5,3.3-1.1,3.3-2.4
		c0-1.2,0-4.3-0.1-8.4c-13.6,3-16.5-6.6-16.5-6.6c-2.2-5.7-5.4-7.2-5.4-7.2c-4.5-3.1,0.3-3,0.3-3c4.9,0.3,7.5,5.1,7.5,5.1
		c4.4,7.5,11.5,5.3,14.3,4.1c0.4-3.2,1.7-5.3,3.1-6.6c-10.9-1.2-22.3-5.5-22.3-24.3c0-5.4,1.9-9.8,5-13.2c-0.5-1.2-2.2-6.2,0.5-13
		c0,0,4.1-1.3,13.5,5c3.9-1.1,8.1-1.6,12.3-1.7c4.2,0,8.4,0.6,12.3,1.7c9.4-6.4,13.5-5,13.5-5c2.7,6.8,1,11.8,0.5,13
		c3.1,3.4,5,7.8,5,13.2c0,18.9-11.5,23.1-22.4,24.3c1.8,1.5,3.3,4.5,3.3,9.1c0,6.6-0.1,11.9-0.1,13.5c0,1.3,0.9,2.8,3.4,2.4
		C85,91.4,99,72.9,99,51.2C99,24,77.1,2,50,2z"/>
	<g>
		<path id="SVGCleanerId_0_1_" class="st0" d="M50,2C22.9,2,1,24,1,51.2C1,73,15,91.4,34.5,97.9c2.4,0.5,3.3-1.1,3.3-2.4
			c0-1.2,0-4.3-0.1-8.4c-13.6,3-16.5-6.6-16.5-6.6c-2.2-5.7-5.4-7.2-5.4-7.2c-4.5-3.1,0.3-3,0.3-3c4.9,0.3,7.5,5.1,7.5,5.1
			c4.4,7.5,11.5,5.3,14.3,4.1c0.4-3.2,1.7-5.3,3.1-6.6c-10.9-1.2-22.3-5.5-22.3-24.3c0-5.4,1.9-9.8,5-13.2c-0.5-1.2-2.2-6.2,0.5-13
			c0,0,4.1-1.3,13.5,5c3.9-1.1,8.1-1.6,12.3-1.7c4.2,0,8.4,0.6,12.3,1.7c9.4-6.4,13.5-5,13.5-5c2.7,6.8,1,11.8,0.5,13
			c3.1,3.4,5,7.8,5,13.2c0,18.9-11.5,23.1-22.4,24.3c1.8,1.5,3.3,4.5,3.3,9.1c0,6.6-0.1,11.9-0.1,13.5c0,1.3,0.9,2.8,3.4,2.4
			C85,91.4,99,72.9,99,51.2C99,24,77.1,2,50,2z"/>
	</g>
	<g>
		<path class="st1" d="M75.8,22.6c2.6,6.7,0.9,11.6,0.4,12.9c3.1,3.4,5,7.8,5,13.2c0,18.9-11.5,23.1-22.4,24.3
			c1.8,1.5,3.3,4.5,3.3,9.1c0,6.6-0.1,11.9-0.1,13.5c0,1.3,0.9,2.8,3.4,2.4C85,91.4,99,72.9,99,51.2c0-5.8-1-11.4-2.9-16.6
			C89.4,27.5,81.8,22.7,75.8,22.6z"/>
		<path class="st1" d="M39.1,75.6c0.6-1.1,1.2-2,1.9-2.6c-6-0.7-12.1-2.3-16.4-6.7C28,71.8,33.4,74.3,39.1,75.6z"/>
	</g>
	<path class="st2" d="M3.6,54.5c0-27.2,21.9-49.2,49-49.2c15,0,28.5,6.8,37.4,17.5C81.1,10.2,66.5,2,50,2C22.9,2,1,24,1,51.2
		C1,63.3,5.4,74.4,12.6,83C6.9,75,3.6,65.1,3.6,54.5z"/>
	<path class="st3" d="M64.8,85.3c0-4.6-1.6-7.6-3.3-9.1C72.4,75,83.8,70.9,83.8,52c0-5.4-1.9-9.8-5-13.2c0.5-1.2,2.2-6.2-0.5-13
		c0,0-0.5-0.2-1.6-0.1c1.1,5.1-0.1,8.8-0.5,9.8c3.1,3.4,5,7.8,5,13.2c0,18.9-11.5,23.1-22.4,24.3c1.8,1.5,3.3,4.5,3.3,9.1
		c0,6.6-0.1,11.9-0.1,13.5c0,1.2,0.7,2.5,2.6,2.5C64.7,95.8,64.8,91,64.8,85.3z"/>
	<path class="st1" d="M24.2,84.8c1,2.1,4.5,7.2,13.6,6.1c0-1.1,0-2.4,0-3.7C30.8,88.7,26.6,86.9,24.2,84.8z"/>
	<path class="st2" d="M26,78.3c-0.3-0.5-0.9-1.3-1.8-2.1C24.8,77.1,25.4,77.8,26,78.3z"/>
</g>
</svg>
