<svg xmlns="http://www.w3.org/2000/svg" viewBox="0 0 78.6 100">
	<path d="M67.8,11C61.1,4.6,51.7,1,41.5,1C25.9,1,16.4,7.4,11.1,12.8C4.5,19.4,0.8,28.1,0.8,36.8 c0,10.9,4.6,19.3,12.2,22.4c0.5,0.2,1,0.3,1.5,0.3c1.6,0,2.9-1.1,3.3-2.7c0.3-1,0.9-3.4,1.1-4.4c0.6-2.1,0.1-3-1.1-4.5 c-2.2-2.6-3.2-5.7-3.2-9.7c0-12,8.9-24.7,25.4-24.7c13.1,0,21.2,7.4,21.2,19.4c0,7.6-1.6,14.6-4.6,19.7c-2.1,3.6-5.7,7.8-11.2,7.8 c-2.4,0-4.6-1-5.9-2.7c-1.3-1.6-1.7-3.7-1.2-5.9c0.6-2.5,1.4-5,2.1-7.5c1.4-4.5,2.7-8.8,2.7-12.3c0-5.9-3.6-9.8-9-9.8 c-6.8,0-12.2,6.9-12.2,15.8c0,4.3,1.2,7.6,1.7,8.8c-0.9,3.6-6,25.3-6.9,29.4c-0.6,2.4-3.9,21.2,1.6,22.7 c6.3,1.7,11.9-16.6,12.4-18.7c0.5-1.7,2.1-8,3.1-12c3,2.9,7.9,4.9,12.6,4.9c8.9,0,17-4,22.6-11.3c5.5-7.1,8.5-17,8.5-27.8 C77.8,25.5,74.2,17.1,67.8,11z"/>
</svg>
