<svg xmlns="http://www.w3.org/2000/svg" viewBox="0 0 88.5 100">
	<path d="M85.3,25.7c-1.8-4.4-7.5-12.1-13.5-16.6c-6.1-4.4-17.8-8.7-25.9-8.1s-17.8,4-22.6,6.7 S12.5,17,9.5,20.2c-2.8,3.2-7.1,10.1-8.3,17.2s1,11.3,4,12.7c12.7,6.3,17.8-4.4,21-9.7c3.2-5.5,6.1-12.7,11.3-17.8 s15.4-7.9,20.2-5.7s9.3,7.7,11.3,13.5c2,6.1,0.6,14.3-0.8,18.8c-1.4,4.4-4.8,7.7-9.7,9.5s-8.5,0.4-9.3-0.2c-0.8-0.6-1.2-1.4-0.6-3.6 c0.6-2.4,2.2-8.9-1.8-15.1s-12.5-4.6-16.8-1.4c-4.2,3.2-7.1,8.5-8.3,15.4c-1.4,6.9,2.8,14.1,2.8,14.1S24,68.7,23,72.4 c-1,3.4-2,9.3-2.2,14.1c-0.2,4.8-0.8,10.7,1.8,11.9c2.6,1.2,5.7,0.6,9.1-2.6s9.5-13.3,9.5-13.3s4,0.6,8.1,0.4 c4.2-0.2,8.1-0.2,18-6.3c9.9-5.9,15.6-19.2,18.8-29.9C89.1,36.4,87.1,30.1,85.3,25.7z M83,38.8c-0.2-0.4-1.8-3-2.2-2.4 c-0.6,0.4-0.6,2.2,0.2,3.2s1.8,2.2,1.8,2.6c0,0.4-0.4,3-0.6,2.8c-0.4-0.2-2.2-3.6-2.8-3c-0.6,0.8-0.6,1.8,0,2.2 c0.6,0.6,2.2,2.6,2.2,3.2c0,0.4-1,4.4-1.4,4.2c-0.4-0.2-1.8-4.8-2.4-4.6c-0.6,0.2-1.2,1-0.8,1.8c0.2,0.8,2.4,4.4,2.2,5.3 c0,0.8-0.8,2.2-1,1.8c-0.2-0.4-2.2-5.3-2.6-5.3s-1.2,0.8-1,1.8s2.2,4.8,2.2,5.3c0,0.4-1,2-1.2,1.8c-0.2-0.2-2.2-4.8-2.6-4.8 c-0.4,0-1.2,0.6-1.2,1.2c0,0.6,2.8,5,2.6,5.7c-0.2,0.6-1.6,2.4-1.8,2.2c-0.2-0.4-2.4-6.1-2.8-6.1c-0.4,0-1,0.6-1,1.4 s2.8,5.7,2.6,5.9c-0.2,0.2-1,1.2-1.4,1c-0.4-0.2-2.4-5-2.8-4.8c-0.6,0-1.6,1.2-1.2,1.4c0.2,0.2,2.6,4.8,2.6,5c0,0.2-1.4,1.2-1.6,1.2 s-2.6-5.5-3.2-5.5c-0.6,0-1.4,0.6-1.2,1.4c0.4,0.8,2.8,4.8,2.6,5.3c-0.2,0.4-1.8,1.4-2,1.2c-0.2-0.2-3.2-6.5-3.6-6.5 c-0.4,0-1.6,1-1.4,1.4s3.2,5.7,3,5.9c-0.2,0.2-2,1-2.2,0.8s-3-6.9-3.4-6.9c-0.4,0-1.6,0.6-1.4,1c0.2,0.6,3.2,6.9,3.2,6.9 s-1.6,0.8-2,0.6c-0.2-0.2-3.4-8.5-3.8-8.5c-0.4,0-1.8,0.4-1.6,0.8s3.6,8.1,3.6,8.3s-1.6,0.8-1.8,0.6c-0.2-0.2-4-9.1-4.4-9.1 c-0.4,0-1.2,0.6-1.2,0.6s4.2,8.5,4,8.7c-0.2,0-1.8,0.4-2.2,0c-0.2-0.4-4-9.7-4.4-9.7c-0.4,0-1.8,0-1.6,0.4c0.2,0.4,4,9.7,3.6,9.7 c-0.4,0-1.6,0.2-1.8,0c-0.2-0.2-4-10.1-4.4-10.5c-0.4-0.4-1.6,0.4-1.4,0.6c0.2,0.2,4.6,9.9,4,9.9c-0.4,0-3-1-3.2-1.2 c-0.2-0.2-3-8.7-3.8-8.9c-0.8-0.2-1.8-0.2-1.4,0.6s3.6,7.7,3.4,7.7c-0.2,0.2-1,0.8-1.2,0.6c-0.2,0-3.2-5.3-3.8-5.3 c-0.6,0-1.2,0.6-1,1.2c0.2,0.6,3.4,5.7,3.4,6.1c0,0.4-0.4,1.2-0.6,0.8c-0.2-0.4-2.6-5.3-3.2-4.8c-0.6,0.4-0.8,1.6-0.6,2 c0.2,0.6,2.8,4.2,2.6,5c-0.2,0.8-0.4,1-0.8,0.8c-0.4-0.2-2.6-4.8-3-4.4c-0.6,0.2-1.2,1.4-0.8,2s3.2,4.2,3,4.8 c-0.2,0.6-0.6,1.2-0.8,1c-0.2-0.2-1.8-3.6-2.2-3.6c-0.4,0-1,1.4-0.8,1.8c0.2,0.4,2.2,3.2,2,3.6c-0.2,0.4-0.6,1.2-0.8,1 c-0.2-0.2-1.8-2.4-2.2-2.4s-1.2,1-0.8,1.6c0.4,0.6,2.2,2.8,2,3.2c-0.2,0.4-1,1.6-1.2,1.2c-0.2-0.4-1.4-2.4-1.8-2.4s-1,1.2-0.6,2 c0.4,0.8,1.4,1.8,1,2.4c-0.2,0.6-1.8,1.2-2,1c-0.2-0.2-1.2-6.5,0.4-13.7s4.2-12.9,3.8-13.3c-0.2-0.6-4-5.7-3.2-12.1s4-12.3,7.3-14.5 c3.2-2.2,8.5-4.8,13.9,0c5.5,4.6,1,16.2,1,16.8c0,0.6,1.2,4.4,4.4,4.8s11.3,0,14.5-3.6c3.2-3.6,7.5-9.3,7.3-17.6 c-0.2-8.3-1.4-14.9-5.7-19.6c-4-4.6-9.3-7.1-13.7-7.7s-13.5,0.2-18,3.8s-6.9,5.9-9.1,10.3c-2.4,4.6-3.2,9.7-6.7,12.3s-5.9,4.2-8.1,3 c-1.4-0.8-4.4-5-3.4-10.9S15,17.8,18.2,14s15.8-9.3,21-10.3c5.5-1,15.1-0.8,22.2,2.2s11.5,5.7,14.3,9.9c2.8,4.2,5.5,8.9,6.1,11.7 c0.8,2.8,1,3.4,0.8,3.4s-0.8-1.2-1.4-0.8c-0.6,0.4-1.2,1.4-0.4,2.4c0.8,1,2.2,1.4,2.2,2.2C83.4,35.6,83.2,39.2,83,38.8z M14.8,22.7 c-1.2-0.2-4,6.5-4.4,9.7c-0.4,3.2,0.6,4.4,1.6,4.4c1-0.2,0.4-2.6,0.4-4.6s1.4-5.7,2.4-7.3C16,23.5,16.2,22.9,14.8,22.7z M33.3,42.9 c-2.2,1.4-4.2,4.4-4.8,6.3c-0.6,1.8-0.2,4.6,0.8,4.6c1.8,0,1-4,2.6-6.9c1.6-2.8,4.6-2.8,5-2.8c0.4,0,0.8-0.4,0.8-1.4 C37.8,41.7,35.6,41.5,33.3,42.9z M67.9,10.8c-3.2-2.2-7.5-4-9.1-4.4c-1-0.2-1.6,1-0.4,1.6c1.2,0.6,6.9,2.4,9.7,5.5 c3,3,4.8,6.9,5.7,6.9c1,0,1.6-0.6,0.4-2.4C73.3,16.2,71.1,13,67.9,10.8z"/>
</svg>
