<svg xmlns="http://www.w3.org/2000/svg" viewBox="0 0 100 70">
	<path d="M80.6,37.3c-0.2-0.6,0.6-0.6,2.4-2.5c1.8-1.8,7.6-9.2,12.2-14.9s3.9-9.4,3.7-12.7 c-0.2-3.5-2.2-5.1-4.1-5.9c-2-0.8-11.6-0.4-13.1-0.2s-2.4,1-3.3,2.4s-6.5,10-8.8,12.7c-2.2,2.7-6.9,7.1-7.3,6.9S61.8,11.6,61.6,9 c-0.4-2.5-5.3-4.9-8.4-5.1s-16.5,0.4-18,0.8c-1.6,0.4-2.5,2-2.4,2.5s2.9,3.3,3.7,4.3s1.6,10.6,1.6,14.7c0,3.9-1.6,5.7-2.2,5.5 c-0.6-0.2-3.1-1.2-6.1-4.7c-3.1-3.5-11-20-11.4-20.4c-0.4-0.6-1.8-0.8-6.3-1c-4.5-0.2-9,0.4-9.8,1.8c-2.4,3.9-1.2,12,0,15.5 s3.3,9.6,7.6,16.3c4.3,6.9,11,13.9,17.5,20.2s11.2,8.2,13.9,9.2s7.8,0.6,12.2,0.4s6.1-2,6.9-4.1c1-2.2,0.8-7.6,0.6-8.2 s-0.2-2.9,0.8-3.1c1,0,1.8,1.2,3.3,2.9c1.6,1.8,4.1,8.8,5.1,9.6c1.2,0.8,3.3,1.4,7.1,1.4s11.6-0.2,13.1-0.8c1.6-0.6,4.9-4.5,5.5-7.1 s-1.4-5.1-3.1-8.4C90.6,47.7,80.8,37.7,80.6,37.3z M93.2,59.6c-0.2-0.4-7.3-9-9.6-12.2c-2.4-3.1-3.5-4.3-4.1-3.9 c-0.8,0.4-0.4,1.2,0,1.6C79.8,45.5,92,60,91.8,60.2s-2.4,0.8-2.5,0.4s-4.7-7.1-7.8-10.4c-2.9-3.5-4.9-5.1-5.5-4.9s-0.8,1.2-0.2,1.8 s4.5,3.5,7.1,7.1c2.5,3.5,5.1,6.5,4.7,6.7c-0.4,0.4-2.7,0.2-2.7,0.2c-0.2-0.2-5.3-6.9-7.8-9.6c-2.5-2.7-2.9-2.9-3.7-2.7 c-0.8,0.4,0.8,1.8,2,2.9s7.1,8.2,7.5,8.6s0.6,1.2,0.2,1.2s-2.7,0-2.9-0.2s-8.2-11.8-9-11.8c-0.8-0.2-1.2,0.4-1,0.8 s8.4,10.6,7.8,10.8s-2,0.2-2.4-0.4c-0.6-0.4-5.5-7.8-8.6-10.4s-5.1-3.3-6.7-3.3s-2.5,1.4-2.5,1.4s-4.5-5.3-5.1-5.1 c-0.8,0.2-0.8,0.8-0.4,1.4c0.4,0.6,4.5,4.5,4.5,4.9c0,0.2-0.4,2.7-0.4,2.9s-5.9-6.3-6.3-6.3c-0.4,0.2-0.8,1.4-0.6,1.8 s7.5,6.3,7.5,6.9c0.2,0.6,0.4,4.3,0,3.9s-7.8-9.2-8.2-9.2s-1.2,1.2-1,1.6c0.4,0.4,9,8.8,8.8,9.2c0,0.4-0.8,1-1.4,0.8s-8.2-9.2-9-9 c-0.8,0.4-1.4,0.8-0.8,1.4s8,7.6,7.8,8s-2.4,0.2-2.7,0s-6.5-8.2-7.6-7.8c-1,0.2-1.2,1.2-0.8,1.6c0.4,0.6,6.9,6.3,6.5,6.5 s-2.4,0.2-2.7,0c-0.6-0.2-5.7-6.3-6.5-6.5c-0.6-0.2-1.2,0.8-1,1.2s4.3,4.3,4.1,4.7s-5.7-1.4-8.4-3.5S24.3,49,20,43.1 s-6.9-9-10.8-16.7S2,10.2,3.9,8c0.6-0.8,2-1.2,3.7-1.2s8.4-0.2,8.8,0.4s5.9,12.9,9,17.5s6.1,7.5,7.8,8.2c2,0.8,4.5,0,5.5-2.4 s1-6.3,0.6-9.4c-0.4-3.1,0-8.4-1.4-10.6s-2.5-3.7-2.5-3.9c0.2-0.4,7.1-0.8,11.8-1s8.2-0.6,8.4,2s0.2,6.1,0,11.6 c-0.2,5.3,0,6.7,1.8,7.5c1.8,0.8,4.1-0.2,8-3.7s7.8-9,10.4-12.9s4.7-6.7,4.9-6.9c0.4-0.2,8.6-0.8,9.4-0.2s3.3,3.9,3.7,4.1 c0.4,0.4,0.4,0.8,0.4,1s-0.6,1.8-1,1.4C93,9,90,5.9,89.4,6.1s-0.8,0.6-0.4,1.4c0.6,0.6,3.7,3.1,3.5,3.5c0,0.4-1.2,2.2-1.4,2 s-3.7-4.7-4.3-4.5c-0.4,0.2-1.2,1.2-0.6,1.6c0.4,0.6,3.7,3.9,3.7,4.3c0,0.4-1.2,2.2-1.4,2s-3.9-4.1-4.3-3.9s-1,0.6-0.6,1.2 s4.3,3.7,4.1,4.3c-0.2,0.6-1.4,2.7-1.6,2.5c-0.4-0.2-4.5-5.3-4.9-4.9s-1,0.8-0.6,1.2s4.3,4.9,4.3,5.1s-1,1.6-1.2,1.6 S80,18.8,79.6,19s-1.2,0.8-1,1.2s4.1,4.1,3.5,4.9c-0.6,0.8-1,1.4-1.4,1.4s-4.3-4.9-4.7-4.7s-1.2,0.6-1,1.2c0.2,0.6,4.7,4.7,4.5,5.1 s-1.4,1.4-1.8,1.2s-3.9-4.3-4.5-4.1s-1,0.2-1,0.8c0,0.6,3.9,4.1,3.7,4.5c-0.4,0.4-2.4,1.4-3.1,2.2c-0.8,0.8-0.8,1.4-0.2,1.8 s8.6,6.9,13.1,12.7c4.5,5.9,5.7,8.2,6.3,9.8C93.4,58.2,93.4,60,93.2,59.6z M12.2,10c-0.6-0.4-5.7-0.4-5.9,0.2 c-0.2,0.6,1.8,6.9,2.4,7.3c0.8,0.4,1.4-0.2,1.6-0.6S8.8,12.2,9,11.8c0-0.4,2.7-0.2,3.1-0.2C12.6,11.4,12.8,10.4,12.2,10z M45.1,8 c-0.2,0.4,0,1.4,0.6,1.6s4.7,0.4,5.1,0.6c0.4,0.2,0.4,2.4,0.4,3.1c0.2,0.8,1.4,0.4,1.8,0s0.2-4.7,0-5.1C52.8,7.8,45.3,7.8,45.1,8z"/>
</svg>
