<?xml version="1.0" encoding="utf-8"?>
<!-- Generator: Adobe Illustrator 19.1.0, SVG Export Plug-In . SVG Version: 6.00 Build 0)  -->
<svg version="1.1" id="Слой_1" xmlns="http://www.w3.org/2000/svg" xmlns:xlink="http://www.w3.org/1999/xlink" x="0px" y="0px"
	 viewBox="0 0 60 100" style="enable-background:new 0 0 60 100;" xml:space="preserve">
<style type="text/css">
	.st0{fill:#0D0F0F;}
</style>
<g>
	<g>
		<path class="st0" d="M25.2,70c-7.6-0.8-14.4-2.7-20.3-7.3c-0.7-0.6-1.5-1.1-2.1-1.8c-2.6-2.5-2.8-5.3-0.8-8.2
			c1.7-2.5,4.7-3.2,7.7-1.7c0.6,0.3,1.1,0.6,1.7,1c10.9,7.5,25.9,7.7,36.9,0.3c1.1-0.8,2.2-1.5,3.6-1.9c2.6-0.7,5.1,0.3,6.5,2.6
			c1.6,2.6,1.6,5.2-0.4,7.2c-3,3.1-6.7,5.4-10.7,6.9c-3.8,1.5-8,2.2-12.2,2.7c0.6,0.7,0.9,1,1.3,1.4c5.6,5.7,11.3,11.3,16.9,17
			c1.9,1.9,2.3,4.3,1.3,6.6c-1.2,2.5-3.7,4.1-6.3,3.9c-1.6-0.1-2.9-0.9-4-2c-4.3-4.3-8.6-8.5-12.8-12.9c-1.2-1.3-1.8-1-2.9,0.1
			c-4.3,4.4-8.6,8.8-13,13.1c-2,1.9-4.3,2.3-6.6,1.2c-2.4-1.2-4-3.6-3.8-6.1c0.1-1.7,0.9-3,2.1-4.1C12.8,82.5,18.4,77,24,71.4
			C24.3,71,24.7,70.6,25.2,70z"/>
		<path class="st0" d="M29.8,50.6c-13.6,0-24.7-11.3-24.6-24.9C5.3,12,16.4,1,30.1,1c13.7,0,24.7,11.3,24.7,25.1
			C54.7,39.7,43.5,50.7,29.8,50.6z M42.1,25.8c0-6.7-5.4-12.1-12.1-12.1c-6.8,0-12.2,5.5-12.1,12.3c0.1,6.7,5.5,12,12.2,12
			C36.8,37.9,42.2,32.5,42.1,25.8z"/>
	</g>
</g>
</svg>
