<?xml version="1.0" encoding="utf-8"?>
<!-- Generator: Adobe Illustrator 19.1.0, SVG Export Plug-In . SVG Version: 6.00 Build 0)  -->
<svg version="1.1" id="Слой_1" xmlns="http://www.w3.org/2000/svg" xmlns:xlink="http://www.w3.org/1999/xlink" x="0px" y="0px"
	 viewBox="0 0 100 100" style="enable-background:new 0 0 100 100;" xml:space="preserve">
<style type="text/css">
	.st0{fill:#0D0F0F;}
</style>
<g>
	<g>
		<path class="st0" d="M50,41.6c4.7,0,8.4-3.8,8.4-8.5c0-4.7-3.8-8.4-8.4-8.4c-4.7,0-8.5,3.8-8.5,8.5C41.6,37.9,45.4,41.6,50,41.6z"
			/>
		<path class="st0" d="M50,1C22.9,1,1,22.9,1,50s21.9,49,49,49s49-21.9,49-49S77.1,1,50,1z M50.1,15.9c9.5,0,17.2,7.8,17.2,17.5
			c0,9.4-7.8,17.1-17.4,17c-9.4,0-17.2-7.9-17.1-17.3C32.8,23.6,40.5,15.9,50.1,15.9z M69.4,57.2c-2.1,2.2-4.7,3.7-7.5,4.8
			c-2.7,1-5.6,1.6-8.5,1.9c0.4,0.5,0.6,0.7,0.9,1c3.9,3.9,7.9,7.9,11.8,11.8c1.3,1.3,1.6,3,0.9,4.6c-0.8,1.7-2.6,2.8-4.4,2.7
			c-1.1-0.1-2-0.6-2.8-1.4c-3-3-6-5.9-8.9-8.9c-0.8-0.9-1.3-0.7-2,0.1c-3,3.1-6,6.1-9.1,9.1c-1.4,1.3-3,1.6-4.6,0.8
			c-1.7-0.8-2.8-2.5-2.7-4.3c0.1-1.2,0.6-2.1,1.4-2.9c3.9-3.9,7.8-7.8,11.6-11.7c0.3-0.3,0.5-0.5,0.9-0.9c-5.3-0.6-10.1-1.9-14.1-5
			c-0.5-0.4-1-0.8-1.5-1.2c-1.8-1.7-2-3.7-0.6-5.7c1.2-1.7,3.2-2.2,5.3-1.2c0.4,0.2,0.8,0.4,1.2,0.7c7.6,5.2,18.1,5.4,25.7,0.2
			c0.8-0.6,1.6-1.1,2.5-1.3c1.8-0.5,3.5,0.2,4.5,1.8C70.8,54,70.8,55.8,69.4,57.2z"/>
	</g>
</g>
</svg>
