<?xml version="1.0" encoding="utf-8"?>
<!-- Generator: Adobe Illustrator 19.1.0, SVG Export Plug-In . SVG Version: 6.00 Build 0)  -->
<svg version="1.1" id="Слой_1" xmlns="http://www.w3.org/2000/svg" xmlns:xlink="http://www.w3.org/1999/xlink" x="0px" y="0px"
	 viewBox="0 0 100 100" style="enable-background:new 0 0 100 100;" xml:space="preserve">
<style type="text/css">
	.st0{fill:#0D0F0F;}
</style>
<g>
	<g>
		<path class="st0" d="M50.1,40.2c5.5,0,9.8-4.4,9.8-9.9c0-5.5-4.4-9.9-9.9-9.9c-5.5,0-9.9,4.4-9.9,10
			C40.2,35.9,44.6,40.2,50.1,40.2z"/>
		<path class="st0" d="M93.8,1H6.2C3.3,1,1,3.3,1,6.2v87.6C1,96.7,3.3,99,6.2,99h87.6c2.9,0,5.2-2.3,5.2-5.2V6.2
			C99,3.3,96.7,1,93.8,1z M50.1,10.1c11.2,0,20.1,9.2,20.1,20.4c-0.1,11-9.2,20-20.3,19.9c-11,0-20.1-9.2-20-20.2
			C29.9,19.1,38.9,10.1,50.1,10.1z M72.7,58.4c-2.5,2.5-5.4,4.4-8.7,5.6c-3.1,1.2-6.5,1.8-9.9,2.2c0.5,0.6,0.8,0.8,1.1,1.1
			c4.6,4.6,9.2,9.2,13.8,13.8c1.6,1.6,1.9,3.5,1,5.4c-0.9,2-3,3.3-5.1,3.2c-1.3-0.1-2.3-0.7-3.2-1.6c-3.5-3.5-7-6.9-10.4-10.5
			c-1-1-1.5-0.8-2.3,0.1c-3.5,3.6-7,7.1-10.6,10.6c-1.6,1.6-3.5,1.9-5.4,1c-2-1-3.2-3-3.1-5c0.1-1.4,0.7-2.4,1.7-3.4
			c4.5-4.5,9.1-9.1,13.6-13.6c0.3-0.3,0.6-0.6,1-1.1c-6.2-0.6-11.8-2.2-16.5-5.9c-0.6-0.5-1.2-0.9-1.7-1.4c-2.1-2-2.3-4.3-0.6-6.7
			c1.4-2,3.8-2.6,6.3-1.4c0.5,0.2,0.9,0.5,1.4,0.8c8.9,6.1,21.1,6.3,30,0.3c0.9-0.7,1.8-1.2,2.9-1.5c2.1-0.5,4.1,0.2,5.3,2.1
			C74.3,54.7,74.3,56.8,72.7,58.4z"/>
	</g>
</g>
</svg>
