<svg xmlns="http://www.w3.org/2000/svg" viewBox="0 0 64.3 100">
    <path d="M13.3 14.1c-4.8 11.3-1.5 22.8 8 28.7 0 .3.2.6.4.8.3.2.7.2 1.2.1.4.2.9.4 1.3.6-.2.2-.3.4-.3.4 0 0 .2-.1.4-.4.8.4 1.7.7 2.6 1 .4.1.9.3 1.3.4.1.3.3.6.8.7.6.2 1.4.1 2.1-.1 9.3 1.6 19.3-1.2 23.1-10.8 5.1-13-5.6-26.6-16.5-32.2C30.2-3.8 16.4 6.9 13.3 14.1zM51.1 26.1C53.5 38 45 45.9 33.3 44.2c0-.5-.2-1-.7-1.4-.8-.6-2.1-.3-3.2.5-1.1-.3-2-.7-3-1.1 0 0 .1-.1.1-.1 1.4-1.5 2.5-2.7 2.5-2.7 0 0-1.2 1.1-2.6 2.6 0 0-.1.1-.1.1C26.2 42.1 26 42 25.9 42c.1-.1.1-.1.2-.2 1.5-1.5 2.1-3.3 1.6-4.2-.5-.9-2.1-.4-3.7 1.1-.4.3-.7.7-1.1 1-.1.1-.2.2-.3.3-1.8-1.3-3.2-2.9-4.4-4.7.2-.2.3-.3.5-.5 1.1-1.1 2.2-2.2 3.4-3.4 1.2-1.2 2.2-2.5 2.5-3.4.4 1 1 1.9 1.8 2.7 2.7 2.8 7 3.9 9.9.7.8-.9 1.4-2.1 1.7-3.3.5.6 1.9.2 3.1-1 .8-.8 1.5-1.6 2.3-2.3 1.5-1.5 2.6-3 2.5-3.2-.1-.2-1-.5-2-.4-1 .1-2.6 1.2-3.7 2.2-.7.6-1.5 1.6-2 2.5 0-1.8-.5-3.7-1.4-5.1-.4-.6-.7-1.2-1.1-1.9-.4-.9-1.5-.7-2.3-.7-2.3 0-4.7.8-6.5 2.2-2.3 1.8-3.2 4.5-2.7 6.9C23.9 27.4 23 28 22 29.1c-1.4 1.4-2.7 2.7-4.1 4.1-.2.2-.4.4-.5.6-1-1.8-1.7-3.9-2.1-6.1.2-.2.5-.4.7-.7 2.7-2.7 5.4-5.4 8.1-8.1 1.5-1.5 3.4-4.4 4.6-6.2 1.2-1.7 2.5-3.2 4.2-4.5 1.7-1.3 3.3-2 3.3-2.1 0 0-.2-.2-.4-.3C43.7 10.2 49.3 17.1 51.1 26.1zM29.6 21.5c1.3-1.1 2.6-1.3 3-1.3 0 .3.6 1.5 1.2 3.1.5 1.2.8 2.4.7 3.9C34.4 28.5 34 30 33.1 31c-.4.4-.2.3-.9 0-.9-.4-1.6-1.1-2.2-1.8C27.5 27 27.5 23.3 29.6 21.5zM34.3 5c.1.1.1.1.3.2.2.1.4.2.5.3-.6.1-1.8.9-3.1 2.1C26.5 13 21.1 18.3 15.8 23.5c-.3.3-.6.6-.9 1-.1-2.1.1-4.2.7-6.3 0 0 0 0 .1-.1L27.1 7.3c1.6-1.5 1.1-2.5-1-1.8-2.3.8-4.3 2.1-6.1 3.6C23.6 5.2 30.4 1.1 34.3 5zM8.2 50.2c-4.6.2-9.4 6.1-6.9 10.6 1.5 2.7 3.9 4.4 6.7 5.8 1.1.6 3.2 1.3 5.3 2.1-.1.3-.1.5.1.6.5.2.9.3 1 .2 0 0 .1-.1.1-.1 0 0 .1-.1.1-.1 2.6 1.2 4.6 2.6 3.1 4.1-6 5.9-14.8 14.5-9 23.1 3.4 5 9.4 1.6 12.7-1.3 3.1-2.7 5.5-6.1 8.5-8.9 4.7-4.4 10.7 5.9 13.4 8.7 3.8 3.9 8 2.8 11.6-.8 6.2-6.2-2.5-15.1-6.9-21.6-.7-1-1.3-1.8-1.8-2.3.5-.1 1.2-.3 2-.7 7-3 17.7-9 15.1-15.9-5.4-14.1-26.1 10.4-29.3 6-.2-.2-.4-.4-.6-.5 0 0 0 0 0 0C25.4 55.6 17.4 49.7 8.2 50.2zM14.5 54c2.1.6 4.2 1.7 6.2 2.6 3.4 1.6 6.7 3.5 10.1 5.1 3.5 4.3 9.8-.5 13.2-2.8 1.4-1 2.8-1.9 4.2-2.9 1.8-1.2 4.8-3.5 7-3.1.8.1 1.5.5 2.2 1.1 1.6 1.4 1.8 4.2.9 5.2-.5.6-1.2 1.2-1.8 1.8-3.5 3.1-8.2 5.7-12.6 7.2-.7.2-1.9.9-1.5 1.9 1.3 3.5 3.5 6.3 5.7 9.3 1.7 2.3 3.3 4.6 4.5 7.3.7 1.5.5 3-.1 4.3 0 0 0 0 0-.1-.7-.8-2.5-.2-4.1 1.3-.3.3-.6.5-.8.8-.1.1-.2.2-.3.3-.5-.2-1-.6-1.5-1.1-.5-.5-1-1.1-1.5-1.6.2-.2.4-.4.6-.6.2-.2.3-.3.5-.5 1.6-1.5 2.6-2.9 2.2-3.1-.3-.2-1.9.9-3.4 2.4-.1 0-.1.1-.2.2-.2.2-.4.4-.6.6-2.7-3.4-5.7-7.3-10.1-7.4-5.5-.1-9 5.2-12.4 8.9-2.9 3.2-5.6 4.1-7.4 3.5 2.2-2.1 4.3-4.3 6.5-6.4 1.5-1.5 3.7-4.2 5.1-5.9 1.8-2.2 3.8-4.3 5.6-6 1.5-1.5 2.3-3.1 1.6-3.5-.7-.4-2.4.6-3.9 2.1-5.6 5.8-11.2 11.6-16.8 17.3-.1.1-.1.1-.2.2-.5-1.3-.6-3.1 0-5.1.1-.1.1-.1.2-.2 4.8-5 9.4-9.6 13.5-13.8 1.5-1.5 1.9-3.2.8-3.6-.9-.4-2.2-.1-3.2.5-1.9-1.2-3.9-2.1-6-3 .8-.9 1.2-1.8.9-2.1-.3-.3-1.4.3-2.5 1.3-1.9-.8-3.7-1.6-5.4-2.7.1-.1.3-.2.4-.4.6-.6 1.2-1.2 1.8-1.8 1.5-1.5 2.9-3.5 3.2-4.4.2-.5.5-.9.8-1.5.1-.1.2-.3.4-.4.2-.2.1-.5-.3-.6-.4-.1-2 1-3.5 2.5-1.3 1.2-2.8 2.7-4.6 4.5-.2.1-.3.3-.4.4 0 0-.1-.1-.1-.1.1-.1.3-.3.4-.4 1.7-1.6 3.2-3.1 4.5-4.4 1.5-1.5 2.8-2.7 2.7-2.7 0 0-1.3 1.2-2.9 2.7-1.5 1.4-3 2.9-4.5 4.4-.2.2-.3.3-.4.4-.6-.5-1.2-1-1.7-1.6-.5-.6-.8-1.1-1.1-1.6.3-.2.7-.5 1.1-.8.6-.6 1.2-1.2 1.8-1.8.8-.8 1.1-1.6.9-2.1C10.5 53.6 13.1 53.6 14.5 54z M42.9 29.4c-1.5 1.5-2.1 3.5-1.2 4.1.9.6 2.9-.3 4.1-1.7 1.2-1.3 2.3-3.5 2.2-4.8-.1-1.3-1.8-1.1-3.3.5C44.2 28.1 43.6 28.7 42.9 29.4zM25.7 73.5c1.5-1.5 2.7-2.8 2.7-2.8 0 0-1.3 1.2-2.8 2.8C19.8 79.4 17.4 81.9 25.7 73.5zM42.8 61.9c.7.3 1.4.9 1.6 1.2.3.3 1.8-.8 3.3-2.3.9-.9 1.9-1.9 2.8-2.8.7-.8 1.4-1.6 2.1-2.4 1.2-1.3.4-2.1-1.5-1.1-1.5.7-3 1.7-4.5 2.7-1.8 1.2-3.6 2.6-4.1 3.1C42 60.9 42.1 61.6 42.8 61.9z"/>
</svg>
