<svg xmlns="http://www.w3.org/2000/svg" viewBox="0 0 100 100">
    <path d="M12.4 27.5c-1.1 0-2-.9-2-2V7.1c0-1.1.9-2 2-2s2 .9 2 2v18.4C14.4 26.6 13.5 27.5 12.4 27.5zM19.3 27.5c-1.1 0-2-.9-2-2V5.6c0-1.1.9-2 2-2 1.1 0 2 .9 2 2v19.9C21.3 26.6 20.4 27.5 19.3 27.5zM26.2 27.5c-1.1 0-2-.9-2-2V5.6c0-1.1.9-2 2-2 1.1 0 2 .9 2 2v19.9C28.2 26.6 27.3 27.5 26.2 27.5z M77.1,99H25.3C9.9,99,1,90.9,1,76.7V25.8C1,10.9,9.7,1,22.7,1H79c9.6,0,20,9.2,20,24.2v51.2 C99,89.1,89.4,99,77.1,99z M22.7,5.1c-13,0-17.6,11.1-17.6,20.7v50.9c0,15.1,11,18.2,20.2,18.2h51.8c10.1,0,17.8-8,17.8-18.5V25.2 c0-12.4-8.3-20.1-15.9-20.1H22.7z M50,32.1c-8.6,0-15.7,7-15.7,15.7s7,15.7,15.7,15.7c8.6,0,15.7-7,15.7-15.7S58.6,32.1,50,32.1z M50,55.6 c-4.3,0-7.8-3.5-7.8-7.8S45.7,40,50,40s7.8,3.5,7.8,7.8S54.3,55.6,50,55.6z M50,72.6c-13.7,0-24.8-11.1-24.8-24.8S36.3,22.9,50,22.9s24.8,11.1,24.8,24.8S63.7,72.6,50,72.6z M50,27 c-11.4,0-20.8,9.3-20.8,20.8S38.6,68.5,50,68.5s20.8-9.3,20.8-20.8S61.4,27,50,27z M68.4 31.5H97V35.9H68.4zM4.1 31.5H31.200000000000003V35.8H4.1zM85.4 21.7c0 2.5-2 4.5-4.5 4.5h-6.7c-2.5 0-4.5-2-4.5-4.5V15c0-2.5 2-4.5 4.5-4.5h6.7c2.5 0 4.5 2 4.5 4.5V21.7z"/>
</svg>
