<svg xmlns="http://www.w3.org/2000/svg" viewBox="0 0 100 100">
    <style>
        .st0{fill:url(#XMLID_2_);} .st1{fill:url(#XMLID_3_);} .st2{fill:url(#XMLID_4_);}
    </style>
    <g>
        <linearGradient id="XMLID_2_" gradientUnits="userSpaceOnUse" x1="50" y1="-355.2855" x2="50" y2="-452.2389" gradientTransform="translate(0 454)">
            <stop offset="0" stop-color="#DA9A47"/>
            <stop offset=".3" stop-color="#BF5151"/>
            <stop offset=".6" stop-color="#B5567D"/>
            <stop offset="1" stop-color="#7259A0"/>
        </linearGradient>
        <path class="st0" d="M69.8,1H30.2C14.1,1,1,14.1,1,30.2v39.6C1,85.9,14.1,99,30.2,99h39.6C85.9,99,99,85.9,99,69.8 V30.2C99,14.1,85.9,1,69.8,1z M89.1,69.8c0,10.7-8.7,19.3-19.3,19.3H30.2c-10.7,0-19.3-8.7-19.3-19.3V30.2 c0-10.7,8.7-19.3,19.3-19.3h39.6c10.7,0,19.3,8.7,19.3,19.3L89.1,69.8L89.1,69.8z"/>
        <linearGradient id="XMLID_3_" gradientUnits="userSpaceOnUse" x1="50" y1="-355.2855" x2="50" y2="-452.2389" gradientTransform="translate(0 454)">
            <stop offset="0" stop-color="#DA9A47"/>
            <stop offset=".3" stop-color="#BF5151"/>
            <stop offset=".6" stop-color="#B5567D"/>
            <stop offset="1" stop-color="#7259A0"/>
        </linearGradient>
        <path class="st1" d="M50,24.7C36,24.7,24.7,36,24.7,50S36,75.3,50,75.3S75.3,64,75.3,50S64,24.7,50,24.7z M50,65.5 c-8.6,0-15.5-6.9-15.5-15.5S41.4,34.5,50,34.5c8.6,0,15.5,6.9,15.5,15.5C65.5,58.6,58.6,65.5,50,65.5z"/>
        <linearGradient id="XMLID_4_" gradientUnits="userSpaceOnUse" x1="75.3947" y1="-355.2855" x2="75.3947" y2="-452.2389" gradientTransform="translate(0 454)">
            <stop offset="0" stop-color="#DA9A47"/>
            <stop offset=".3" stop-color="#BF5151"/>
            <stop offset=".6" stop-color="#B5567D"/>
            <stop offset="1" stop-color="#7259A0"/>
        </linearGradient>
        <circle class="st2" cx="75.4" cy="24.8" r="6.1"/>
    </g>
</svg>
