<svg xmlns="http://www.w3.org/2000/svg" viewBox="0 0 100 100">
    <path d="M98.5,50.6c-0.2-11-0.6-26.7-1.2-29.1c-0.6-2.4-8.2-13.6-10.8-16s-7.4-3.6-11.8-3.6 C70.3,1.7,34.8,0.3,25,1.5s-13.6,5-16.2,7.2c-2.2,2-5,4-6.2,7.8S1.3,31.3,1.1,42.8c-0.2,11.8,0,24.9,0,30.5s2.6,11,5.4,14.6 s8.6,7.4,12,8.6s4.8,1.8,14.4,2c9.8,0.2,16.4,0.6,29.7,0.4c13.2-0.2,18.4-0.8,24.1-3.6c5.8-2.8,10.2-9.8,11.6-13.6 C99.7,77.9,98.7,61.8,98.5,50.6z M72.3,92.3c-0.2,0.2-2,0.6-2.2,0.2c-0.4-0.4-3-6-3-6.2c0-0.4,2.4-0.4,2.6-0.2 C69.9,86.3,72.5,92.1,72.3,92.3z M22.8,54.6C23,57,24.4,64.8,29.6,69c5.2,4.2,9.6,6,14.2,6.4S54.6,74.8,58,73 c3.4-1.8,8.6-5.4,10.4-9.6c1.8-4.2,3-9.6,3-12.4s0.4-5.8,0.6-6c0.2-0.2,13.4-0.8,13.8-0.2c0.4,0.6,0.6,19.6,0.2,24.9 c-0.4,5.4-0.4,9.8-2.4,11.2c-2,1.6-2,2.2-8.4,2.6c-6.4,0.4-15.6,1.4-25.3,1.4s-21.2-0.2-25.1-0.6s-7.2-1.6-7.6-3.2 c-0.4-1.6-0.8-13-1-20c-0.2-7,0-14.2,0.4-14.8c0.4-0.4,6.8-2.2,7-2C23.2,44.8,22.6,52.2,22.8,54.6z M74.1,91.9c-0.4-0.2-2.8-6-2.8-6 c0-0.2,2.2-0.2,2.4-0.2c0.2,0,3.4,5,3.2,5.2C76.7,91.1,74.3,92.1,74.1,91.9z M80.3,90.1c-0.4,0.4-1.6,0.6-1.8,0.6s-2.6-5-2.8-5.2 s2-0.2,2.2,0C78.5,85.9,80.7,89.9,80.3,90.1z M81.9,89.3c-0.4-0.2-2-3.6-2.2-3.8c0-0.2,1.8-1,2-0.8c0.4,0.2,2,3.2,2,3.2 S82.3,89.3,81.9,89.3z M85.1,86.5c-0.4-0.2-1.6-2.6-1.8-2.8c0-0.2,1.8-1.4,1.8-1.4s1.6,1.6,1.6,1.8S85.5,86.7,85.1,86.5z M87.7,82.3 c-0.4,0.2-1.6-1.8-1.6-2c0-0.2,0.2-2.6,0.6-2.6c0.2,0,2.2,2.2,2.4,2.4S88.1,82.3,87.7,82.3z M91.1,54c-0.4,10.6-0.2,15.8-0.4,19 c-0.4,3.2-1,5-1.2,5c-0.2,0-2.2-2.8-2.2-3.2c0-0.4,0.2-8.6,0.4-15s0.2-17.2,0-19.2s-0.8-2.8-2-3.2C84.5,37,75.9,37,71.5,37 c-4.4,0-5.6,0-6,0.4c-0.2,0.4-0.4,2.4-0.2,3.2s0.8,2.4,0.8,2.6c0,0.2,0.4,10.4-1.8,14.4c-2,4-4,8.2-11.2,10.8s-10.6,3.2-17,1 s-9-6.4-10-9.2c-1-2.8-1.6-9.6-1.2-13.8c0.4-4.2,0.6-5,1.4-5.8c0.6-0.8,1.4-1.2,1.2-1.8c-0.2-0.6-0.8-0.8-3-1.4 c-2.2-0.6-8-0.4-10-0.6c-2-0.2-3.4,0.2-4,2c-0.8,2,0.6,19.2,1,27.3c0.4,8.2,0.8,12.6,2.8,15.4c2,2.8,3.6,3.8,6.6,4.2s8.6,1.2,14.2,1 c5.8-0.2,19.6-0.6,22.9-0.6c3.4,0,7.6-0.2,7.8-0.2s3,6,2.8,6.2s-1.8,0.4-2.2,0.2c-0.2-0.2-2.6-5.4-3.2-5.4s-1.6,0.4-1.6,0.8 s2.8,4.6,2.6,4.6c-0.2,0-2.6,0.2-3,0c-0.2-0.2-2-5-2.2-5c-0.2,0-1.2,0-1.4,0.4c-0.2,0.2,1.8,4.4,1.6,4.4c-0.2,0-1.8,0.2-2-0.2 c-0.2-0.2-1.8-4.4-2.2-4.4S54,87.9,54,88.1c0,0.2,1.4,4,1.2,4c-0.2,0-2.4,0.2-2.6,0c-0.2-0.2-1.2-3.4-1.6-3.4 c-0.4,0-1.6,0.4-1.4,0.8c0.2,0.4,1.4,2.8,1,2.8S39.2,92.9,30,92.5c-9.2-0.4-12.8,0.4-16.2-1.4s-8-6.4-9.4-10 c-1.4-3.4-2-12.8-1.6-19.6S2.5,45.2,3.1,35.8s-0.2-21.2,7-26.1c1.6-1.2,5.6-4,8.4-4.8c2.6-0.8,7-1.8,7.6-1.2 c0.6,0.6,1.2,3.6,1.8,3.6s1.6-0.2,1.4-0.8s-1.4-2.8-1-2.8c0.4,0,1.2-0.2,1.6,0c0.2,0.2,3.2,3.8,4,6c0.8,2.2,0.8,2.2,1.2,2.2 c0.4,0,0.8-0.4,0.8-1c-0.2-0.6-1.2-3.8-2-5.4c-1-1.6-1.6-2.4-1.2-2.4c0.4,0,1.2-0.6,1.8,0s3.2,4.4,4.2,6.2c1,1.8,0.8,2.4,1.2,2.4 c0.4,0,1-0.2,0.8-1.2c-0.4-1-1.4-3.4-2.4-5.2s-1.6-2.6-1.4-2.6c0.2,0,2.6-0.2,3,0.2c0.4,0.4,3.6,6.8,4.8,9.2s1.8,4.4,2.2,4.4 c0.4,0,0.8-0.2,0.6-0.6c-0.2-0.4-3.6-7.8-4.4-10.2c-0.8-2.4-1.2-3-0.8-3s1.8-0.4,2.2,0s3,6,5,9.8c2,3.8,3.6,7,3.8,7 c0.2,0,0.6-0.4,0.4-1c-0.4-0.6-4-9.2-4.8-10.8c-0.8-1.6-2.2-5-1.8-5c0.4,0,2-0.2,2.2,0.2c0.2,0.4,4,6.6,5.6,10.8 c1.6,4.2,2,5.4,2.2,5.4c0.2,0,0.4-0.4,0.4-0.6s-2.4-7-3.8-10c-1.4-3-2.4-5.2-2-5.2c0.4,0,2.4-0.2,2.6,0.2s4.4,9,5.4,11.2 s1.6,3.6,1.8,3.6c0.2,0,0.6-0.4,0.4-1.2c-0.4-0.8-3.4-9.4-4.4-11.2s-1.2-2.6-0.8-2.6c0.4,0,1.6-0.2,1.8,0.4s5.8,13,6,13 c0.2,0,0.6-0.2,0.6-0.6c0-0.4-3.4-9-4-10.6c-0.6-1.4-0.8-2.2-0.4-2.2c0.4,0,2.4,0,2.4,0.2c0,0.2,3.8,8.6,4.2,8.6 c0.4,0,0.6-0.2,0.6-0.8s-2.4-6.2-2.6-6.6c-0.2-0.6-0.6-1-0.2-1.2c0.4,0,2.8,0.2,2.8,0.2s2,4.2,2.4,4.2c0.4,0,1.4-0.6,1-1.4 c-0.4-0.8-1.6-3.2-1.2-3.2c0.4,0,1.6-0.2,1.8,0.2c0.2,0.4,2.4,5.2,3,5.2c0.6,0,1-0.4,1-0.8c-0.2-0.4-2.4-4.6-2.2-4.6 c0.2,0,2.2-0.2,2.4,0.2c0.4,0.4,2,4.4,2.8,4.4s1.2-0.8,1-1c-0.2-0.4-1.8-3.4-1.4-3.4c0.4,0,1-0.2,1.4,0.4s3,6.8,3.2,6.8 s1.2-0.8,1-1.2s-2.4-5.4-2-5.6c0.4-0.2,1.6,0,2.4,1.2s1.2,2.8,1.6,2.8c0.4,0,1.2-0.6,1.4-0.6s3.6,3.4,3.8,9.6S91.5,43.4,91.1,54z M20,8.9c-1.2,0-5,1.4-7.8,3.4s-4.8,6-5,7.4s0,4.8,0.2,5c0.4,0.4,1.4,0.2,1.8,0c0.4-0.2,0.2-1.6,0-2.8c-0.2-1.4,0.8-3.6,2.2-5.4 s4.4-4.2,6-4.8c1.6-0.6,3.2-0.8,3.6-1.2C21.4,10.1,21.2,9.1,20,8.9z M65.1,28.1c-0.6-0.2-0.2-4-0.4-4.4c-0.2-0.4-2.2-0.6-2.2-0.2 c0,0.4-0.4,6,0,6.6c0.4,0.6,3.8,0.8,4.6,0.8c0.8,0,0.6-1.2,0.4-1.8C67.5,28.3,65.7,28.3,65.1,28.1z M78.5,11.5 c-1.2-0.2-9.6,0-10.6,0.4c-1,0.4-1,3.2-0.8,5.8s0.2,8.2,0.6,8.6c1,1.2,11.4,0.8,12.8,0.4c1.4-0.4,0.8-9.2,0.6-11.4 S79.7,11.7,78.5,11.5z M78.7,24.3c-0.6,0-6.8,0.2-7.2-0.2c-0.4-0.4-0.2-6.8,0-7.4c0.2-0.4,7.2-0.6,7.6-0.2 C79.5,16.9,79.3,24.3,78.7,24.3z M40.8,32.9c1-0.2,0.6-1.6,0-1.8c-0.6-0.2-2.8,0.4-5.4,2.2c-2.8,1.8-4.6,4.4-5,5.6 c-0.4,1.2-0.2,2.8,0.2,3c0,0,1,0.2,1.6,0.2c0.6,0,0.6-3,2.4-5.2C36.2,34.4,39.8,33.1,40.8,32.9z M45.8,33.5 c-5.6-0.4-9.4,3.4-10.6,4.8c-3.2,4-3.2,12.8-2,16.6s7.6,6.8,10,7.2c2.4,0.6,11.6-1.2,14.2-5.6s1.8-11.2,0.4-15.6 C56.4,36.4,51.4,34,45.8,33.5z M55.8,55.6c-2.4,2.4-6.6,4.8-11,4.6c-4.4-0.2-8.4-2.4-7.8-7.4s2.8-6.8,5-9c1.4-1.4,5.2-3.8,8.2-3.8 c3,0,4.6-0.2,6,3C57.6,46.2,58,53.2,55.8,55.6z"/>
</svg>
