<?xml version="1.0" encoding="utf-8"?>
<!-- Generator: Adobe Illustrator 19.1.0, SVG Export Plug-In . SVG Version: 6.00 Build 0)  -->
<svg version="1.1" id="Слой_1" xmlns="http://www.w3.org/2000/svg" xmlns:xlink="http://www.w3.org/1999/xlink" x="0px" y="0px"
	 viewBox="0 0 100 100" style="enable-background:new 0 0 100 100;" xml:space="preserve">
<style type="text/css">
	.st0{fill:#4C5A8D;}
</style>
<path class="st0" d="M85.8,1H14.2C6.9,1,1,6.9,1,14.2v71.6C1,93.1,6.9,99,14.2,99h35.3l0.1-35h-9.1c-1.2,0-2.1-1-2.1-2.1V50.6
	c0-1.2,1-2.2,2.1-2.2h9.1V37.5c0-12.7,7.7-19.6,19-19.6h9.3c1.2,0,2.1,1,2.1,2.1v9.5c0,1.2-1,2.1-2.1,2.1h-5.7
	c-6.1,0-7.3,2.9-7.3,7.2v9.4h13.5c1.3,0,2.3,1.1,2.1,2.4l-1.3,11.3c-0.1,1.1-1,1.9-2.1,1.9H64.9l-0.1,35h21
	c7.3,0,13.2-5.9,13.2-13.2V14C99,6.9,93.1,1,85.8,1z"/>
</svg>
