<?xml version="1.0" encoding="utf-8"?>
<!-- Generator: Adobe Illustrator 19.1.0, SVG Export Plug-In . SVG Version: 6.00 Build 0)  -->
<svg version="1.1" id="Слой_1" xmlns="http://www.w3.org/2000/svg" xmlns:xlink="http://www.w3.org/1999/xlink" x="0px" y="0px"
	 viewBox="0 0 46.7 100" style="enable-background:new 0 0 46.7 100;" xml:space="preserve">
<style type="text/css">
	.st0{fill:#0D0F0F;}
</style>
<g>
	<path id="Facebook" class="st0" d="M10.4,20.1c0,2.5,0,13.5,0,13.5H0.5V50h9.9v49h20.3V50h13.6c0,0,1.3-7.9,1.9-16.6
		c-1.8,0-15.4,0-15.4,0s0-9.6,0-11.3c0-1.7,2.2-4,4.4-4s6.8,0,11.1,0c0-2.2,0-10,0-17.2c-5.7,0-12.2,0-15,0
		C9.9,1.1,10.4,17.7,10.4,20.1z"/>
</g>
</svg>
