<?xml version="1.0" encoding="utf-8"?>
<!-- Generator: Adobe Illustrator 19.1.0, SVG Export Plug-In . SVG Version: 6.00 Build 0)  -->
<svg version="1.1" id="Слой_1" xmlns="http://www.w3.org/2000/svg" xmlns:xlink="http://www.w3.org/1999/xlink" x="0px" y="0px"
	 viewBox="0 0 100 100" style="enable-background:new 0 0 100 100;" xml:space="preserve">
<style type="text/css">
	.st0{fill:#0D0F0F;}
</style>
<g>
	<g>
		<path class="st0" d="M50,1C23,1,1,23,1,50s22,49,49,49s49-22,49-49C99,23,77,1,50,1z M62.2,51.7h-8c0,12.7,0,28.4,0,28.4H42.4
			c0,0,0-15.5,0-28.4h-5.6v-10h5.6v-6.5c0-4.7,2.2-11.9,11.9-11.9h8.8V33c0,0-5.3,0-6.4,0s-2.5,0.5-2.5,2.7v5.9h9L62.2,51.7z"/>
	</g>
</g>
</svg>
