<?xml version="1.0" encoding="utf-8"?>
<!-- Generator: Adobe Illustrator 19.1.0, SVG Export Plug-In . SVG Version: 6.00 Build 0)  -->
<svg version="1.1" id="Слой_1" xmlns="http://www.w3.org/2000/svg" xmlns:xlink="http://www.w3.org/1999/xlink" x="0px" y="0px"
	 viewBox="0 0 100 100" style="enable-background:new 0 0 100 100;" xml:space="preserve">
<style type="text/css">
	.st0{fill:#914B48;}
</style>
<g>
	<g>
		<path class="st0" d="M99,51.4C99.8,23.5,77.1,0.6,49.3,1C22.4,1.4,0.8,23.6,1,50.4c0.1,19.2,11.4,35.8,27.6,43.7
			c0.9,0.5,2-0.3,2-1.3c-0.1-3.2,0-6.5,0.6-9.2c0.6-2.7,3.1-13,4.7-19.8c0.8-3.3,0.9-6.7,0.2-10.1c-0.2-1.1-0.4-2.4-0.4-3.8
			c0-7.2,4.2-12.6,9.4-12.6c4.4,0,6.6,3.3,6.6,7.3c0,4.5-2.8,11.1-4.3,17.3c-1.2,5.2,2.6,9.4,7.7,9.4c9.3,0,16.4-9.8,16.4-23.9
			c0-12.5-9-21.2-21.8-21.2c-14.8,0-23.5,11.1-23.5,22.6c0,4.5,1.7,9.3,3.9,11.9c0.4,0.5,0.5,1,0.4,1.5c-0.4,1.6-1.3,5.2-1.4,5.9
			c-0.2,1-0.8,1.2-1.7,0.7c-6.5-3-10.6-12.5-10.6-20.2c0-16.4,11.9-31.5,34.4-31.5c18.1,0,32.1,12.9,32.1,30.1
			c0,18-11.3,32.4-27,32.4c-4.2,0-8.1-1.7-10.4-4c-0.7-0.7-1.9-0.4-2.2,0.6c-0.8,3.1-2.1,8.2-2.6,9.8c-0.8,3-2.4,6.4-4,9.4
			c-0.4,0.8,0,1.8,0.9,2c4,1,8.2,1.5,12.5,1.5C76.2,98.8,98.2,77.1,99,51.4z"/>
	</g>
</g>
</svg>
