<?xml version="1.0" encoding="utf-8"?>
<!-- Generator: Adobe Illustrator 19.1.0, SVG Export Plug-In . SVG Version: 6.00 Build 0)  -->
<svg version="1.1" id="Слой_1" xmlns="http://www.w3.org/2000/svg" xmlns:xlink="http://www.w3.org/1999/xlink" x="0px" y="0px"
	 viewBox="0 0 100 100" style="enable-background:new 0 0 100 100;" xml:space="preserve">
<style type="text/css">
	.st0{fill:#0D0F0F;}
</style>
<g>
	<path class="st0" d="M93.6,6.4C90,2.8,85.7,1,80.6,1v0H19.4c-5.1,0-9.4,1.8-13,5.4C2.8,10,1,14.3,1,19.4v61.3c0,5.1,1.8,9.4,5.4,13
		c3.6,3.6,7.9,5.4,13,5.4h11.7c-0.7-6.5-0.6-12,0.4-16.2l6.3-26.4c-1-2.1-1.5-4.7-1.5-7.7c0-3.5,0.9-6.5,2.7-8.9
		c1.8-2.4,4-3.6,6.6-3.6c2.1,0,3.7,0.7,4.8,2.1c1.1,1.4,1.7,3.1,1.7,5.2c0,1.3-0.2,2.9-0.7,4.8c-0.5,1.9-1.1,4-1.9,6.5
		c-0.8,2.5-1.4,4.5-1.7,5.9c-0.6,2.6-0.1,4.8,1.5,6.6c1.6,1.8,3.6,2.8,6.2,2.8c4.5,0,8.2-2.5,11.1-7.5c2.9-5,4.3-11.1,4.3-18.2
		c0-5.5-1.8-10-5.3-13.4c-3.6-3.4-8.5-5.2-14.8-5.2c-7.1,0-12.9,2.3-17.3,6.8c-4.4,4.5-6.6,10-6.6,16.4c0,3.7,1.1,6.9,3.2,9.6
		c0.7,0.8,1,1.7,0.7,2.7c-0.2,0.7-0.5,2-1,3.9c-0.2,0.6-0.5,1-0.9,1.2c-0.4,0.2-0.9,0.2-1.5,0c-3.3-1.4-5.8-3.7-7.4-7
		c-1.7-3.3-2.5-7.1-2.5-11.5c0-2.8,0.5-5.6,1.4-8.5c0.9-2.8,2.3-5.6,4.2-8.2c1.9-2.6,4.2-4.9,6.9-7c2.7-2,5.9-3.7,9.8-4.9
		c3.8-1.2,8-1.8,12.4-1.8c4.5,0,8.7,0.8,12.6,2.3c3.9,1.6,7.1,3.6,9.7,6.2c2.6,2.6,4.7,5.5,6.2,8.9c1.5,3.3,2.2,6.8,2.2,10.4
		c0,9.6-2.4,17.6-7.3,23.8c-4.9,6.3-11.2,9.4-18.9,9.4c-2.6,0-4.9-0.6-7.2-1.8c-2.2-1.2-3.8-2.6-4.7-4.3c-1.9,7.4-3,11.9-3.4,13.3
		c-1,3.7-3.3,8.2-6.9,13.4h46.3c5.1,0,9.4-1.8,13-5.4c3.6-3.6,5.4-7.9,5.4-13V19.4C99,14.3,97.2,10,93.6,6.4z"/>
</g>
</svg>
